<?xml version="1.0" encoding="UTF-8"?>
<svg id="Layer_1" xmlns="http://www.w3.org/2000/svg" viewBox="0 0 1210.47 691.91">
  <defs>
    <style>
      .cls-1 {
        fill: #001117;
      }

      .cls-2 {
        fill: #004355;
      }

      .cls-3 {
        fill: #fb7b02;
      }

      .cls-4 {
        fill: #3e5d8d;
      }

      .cls-5 {
        fill: #00c4f8;
      }

      .cls-6 {
        fill: #284a81;
      }

      .cls-7 {
        fill: #2a1500;
      }

      .cls-8 {
        fill: #00171d;
      }

      .cls-9 {
        fill: #1f7244;
      }

      .cls-10 {
        fill: #fb7a00;
      }

      .cls-11 {
        fill: #1d437c;
      }

      .cls-12 {
        fill: #00c2e8;
      }

      .cls-13 {
        fill: #fafcfb;
      }

      .cls-14 {
        fill: #001e28;
      }

      .cls-15 {
        fill: #1e7244;
      }

      .cls-16 {
        fill: #00c5f9;
      }

      .cls-17 {
        fill: #fcfcfd;
      }

      .cls-18 {
        fill: #f6f9fa;
      }

      .cls-19 {
        fill: #2a5598;
      }

      .cls-20 {
        fill: #04c6fc;
      }

      .cls-21 {
        fill: #f6f9fb;
      }

      .cls-22 {
        fill: #f9fbfa;
      }

      .cls-23 {
        fill: #261300;
      }

      .cls-24 {
        fill: #001d26;
      }

      .cls-25 {
        fill: #fcfdfd;
      }

      .cls-26 {
        fill: #fdfdfd;
      }

      .cls-27 {
        fill: #3a569f;
      }

      .cls-28 {
        fill: #183b70;
      }

      .cls-29 {
        fill: #083072;
      }
    </style>
  </defs>
  <path class="cls-27" d="M337.02,152.7c17.39-43.54,34.82-87.07,52.12-130.64,1.53-3.85,3.08-4.91,7.58-4.01,49.28,9.94,98.63,19.57,147.97,29.22,26.68,5.22,53.39,10.33,81.06,15.68-4.79,12.1-9.46,23.89-14.46,36.53,32.04,12.78,63.92,25.5,95.79,38.22-2.91,4.65-5.82,9.29-8.73,13.94-30.95-12.41-61.9-24.83-93.1-37.34-9.66,24.2-19.14,47.94-28.8,72.12,9.35,3.76,18.66,6.6,27.07,11.12,10.58,5.69,19.87,4.79,30.28-.6,12.02-6.23,24.86-10.88,37.41-16.24,1.42,2.71,2.64,5.03,3.85,7.35-4.63,7.38-9.26,14.75-13.89,22.13-1.5-.13-3.21-.78-4.46-.29-5.97,2.36-11.82,5.02-17.71,7.6-2.18.96-4.32,1.99-6.64,3.07,3.15,7.41,6.04,14.23,8.93,21.04-4.56,7.12-9.12,14.23-13.68,21.35-5.9-13.65-11.77-27.32-17.74-40.94-.62-1.42-1.54-3.26-2.78-3.78-12.29-5.11-24.68-9.99-37.26-15.02-1.02,2.42-1.79,4.41-2.68,6.35-2.16,4.73-4.37,9.43-6.56,14.15-1.06-2.04-2.12-4.08-3.33-6.4-1.82.62-3.41,1.05-4.89,1.69-39.07,16.99-78.12,34.04-117.21,50.99-17.7,7.68-35.48,15.19-53.22,22.77,0-40.76.02-81.52.03-122.28,2.68-7.48-1.06-14.2-10.01-17.98-5.46,0-10.93-.13-16.39.03-3.55.1-7.08.61-10.62.94-2.65-.25-5.29-.51-7.94-.76ZM511.19,158.69c-8.16-2.66-15.66-4.87-22.96-7.58-3.52-1.31-5.37-.3-7.4,2.5-13.84,19.11-27.8,38.14-41.74,57.18-5.84,7.98-11.69,15.95-17.53,23.93l-.83-.31c4.44-33.47,8.88-66.94,13.34-100.57-8.16-2.55-15.87-4.96-24.04-7.51-1.56,14.55-3.06,28.75-4.6,42.95-3.07,28.3-6.14,56.6-9.28,84.89-.28,2.55.44,3.85,2.87,4.92,5.93,2.61,11.92,5.2,17.44,8.55,4.3,2.61,6.5,1.44,9.31-2.11,16.94-21.37,34.11-42.57,51.16-63.86,11.33-14.15,22.6-28.34,34.26-42.97Z"/>
  <path class="cls-19" d="M371.97,152.5c8.95,3.79,12.69,10.51,10.01,17.98-.34,1.55-.94,3.1-.97,4.66-.1,7.47-.05,14.94-.04,22.42.06,31.88.12,63.76.18,95.64-2.04.84-4.09,1.68-6.13,2.52,0-44.41,0-88.82,0-134.06-1.12,1.53-1.59,2.18-2.07,2.83l-2.97-2.04c-.85-.65-1.7-1.87-2.55-1.87-34.83-.09-69.66-.1-104.49,0-1.32,0-2.64,1.16-3.95,1.79-.43,1.03-.86,2.05-1.29,3.08-.71-.23-1.42-.46-1.77-.58,0,6.19.08,12.12-.02,18.06-.09,5.6.74,6.56,6.36,6.56,25.76,0,51.52,0,77.29,0,1.94,0,3.88,0,6.41,0v9c-1.89.32-3.79.91-5.68.92-25.27.06-50.54.02-75.8.09-1.86,0-3.72.71-5.58,1.09.04,6.08.09,12.16.13,18.23,1.7.56,3.39,1.6,5.09,1.61,25.14.1,50.27.07,75.41.07,1.95,0,3.89,0,5.98,0v9.99c-2.29,0-4.11,0-5.93,0-25.3,0-50.61-.03-75.91.04-1.89,0-3.77.62-5.66.95-2.04,1.7-3.8,13.65-2.19,15.58.33.4,1.24.31,1.88.45.08.67.16,1.33.25,2-.41.33-.82.67-1.22,1.01,1.07.64,2.14,1.29,3.22,1.93,26.97,0,53.94.02,80.92,0,2.71,0,5.27-.45,5.21,3.84-.09,6.12-.79,6.99-6.86,6.04-1.63-.26-3.26-.76-4.89-.77-23.81-.05-47.62-.07-71.43.04-1.31,0-2.61,1.19-3.91,1.82-.03,6-.05,11.99-.08,17.99,1.87.37,3.73,1.07,5.6,1.07,25.61.07,51.22.15,76.83-.06,4.42-.04,4.75,1.92,4.74,5.38,0,3.53-.03,5.93-4.86,5.78-17.28-.56-34.58-.78-51.87-1-9.78-.12-19.57,0-29.36,0-.34.31-.68.62-1.02.93-.32.05-.64.07-.96.07-.14.06-.28.12-.42.18.14.16.27.32.41.49.15.19.17.4.06.61-.16.56-.32,1.13-.49,1.69-.73.56-2.09,1.12-2.09,1.68-.02,3.38.16,6.78.53,10.15.12,1.07,1.02,2.04,1.56,3.06l1.39,1.25c1.67.6,3.33,1.72,5,1.73,19.82.12,39.64.05,59.46.12,1.89,0,3.79.65,5.68,1-7.41,3.31-14.83,6.63-22.24,9.94-.55-.32-1.1-.91-1.65-.91-15.09-.05-30.18-.04-45.97-.04,1.34.86,1.99,1.29,2.65,1.71-1.25.19-2.49.38-3.75.57v16.72c2.17.16,4.13.3,6.08.45-8.49,3.77-16.98,7.55-25.48,11.3-7.77,3.44-7.68,3.39-4.35,11.02,7.57,17.37,15.04,34.79,22.56,52.19-1.48,1.01-3,2.95-4.43,2.89-10.23-.45-20.52-.73-30.63-2.16-14.96-2.12-29.79-5.13-44.66-7.82-17.68-3.19-35.35-6.46-53.04-9.61-.99-.18-2.11.41-3.17.64-.69,0-1.38,0-2.07,0-1.32-.3-2.65-.61-3.97-.91-.68-.03-1.36-.06-2.05-.08-3.24-2.78-6.84-3.67-10.9-2.04-.7,0-1.39-.01-2.09-.02-.5-.58-.91-1.55-1.51-1.68-3.87-.84-7.77-1.58-11.69-2.19-7.82-1.22-7.83-1.17-7.83-9.32,0-74.75,0-149.5,0-224.26,0-1.33-.43-2.88.1-3.95.83-1.66,2.12-4.02,3.55-4.29,12.16-2.33,24.42-4.16,36.6-6.36,2.68-.48,5.19-1.87,7.78-2.84,1.02-.23,2.03-.46,3.05-.69,2.27.17,4.6.75,6.8.44,7.98-1.14,15.95-2.42,23.86-3.96,5.52-1.07,10.93-2.66,16.4-4.01,2.34-.25,4.67-.51,7.01-.76.43-.03.86-.05,1.28-.08.71-.38,1.42-.75,2.13-1.13,6.23-.64,12.47-1.22,18.69-1.99.67-.08,1.19-1.27,1.79-1.95.61-.17,1.21-.35,1.82-.52.94.29,1.93.95,2.81.82,14.81-2.21,29.52-5.46,44.66-4.13-.01.97-.03,1.94-.04,2.91-.01.69-.02,1.37-.04,2.06,0,.65,0,1.3,0,1.95,0,1.35,0,2.7,0,4.05,0,2.98,0,5.97.01,8.95-2.75,3.87-2.16,6.57,1.76,8.04,35.78,0,71.56,0,107.34-.06,1.9,0,3.8-.58,5.69-.9,0-.35.02-.69.03-1.04ZM137.78,267.44c-.29.68-.58,1.36-.87,2.04-.31.33-.62.67-.92,1-.03,1-.05,1.99-.08,2.99-.5,1.68-1.01,3.35-1.72,5.74-3.03-18.5-5.97-36.39-8.78-53.55h-21.49c0,2.07-.19,3.42.03,4.7,2.06,11.89,4.07,23.79,6.35,35.64,2.04,10.55,4.32,21.07,6.68,31.55,1.57,6.99,3.48,13.91,5.23,20.86.26.26.53.53.79.79.31.38.58,1.05.93,1.08,6.06.63,12.12,1.2,18.19,1.65.2.01.5-1.37.76-2.11.36-.45.72-.9,1.08-1.35.67-.76,1.74-1.43,1.95-2.3,2-8.07,3.88-16.16,5.67-24.28.16-.74-.56-1.67-.87-2.51.08-.64.16-1.28.23-1.93.7-.94,1.78-1.79,2.04-2.84,1.51-6.05,2.82-12.15,4.37-18.99.56,2.74.94,4.65,1.35,6.57,2.11,10.01,3.95,20.08,6.4,30.01,6.39,25.91-.37,21.83,24.04,22.31.5,0,1.16.19,1.47-.06,1.8-1.41,4.6-2.65,5.07-4.46,3.35-12.94,6.25-25.99,9.25-39.02,4.19-18.19,8.42-36.38,12.41-54.62.39-1.79-.8-3.93-1.26-5.91l-.13-.09c-1.33-.63-2.62-1.71-3.98-1.8-3.64-.25-7.31-.08-10.96-.07-6.39.01-8.77,2.34-9.1,8.81-.08,1.47-.32,2.95-.57,4.41-1.8,10.51-3.62,21.01-5.43,31.51-1,5.79-1.99,11.58-3.16,18.43-1.1-4.33-2.05-7.54-2.71-10.8-3.07-15.17-6.03-30.37-9.13-45.53-.21-1.03-1.31-1.87-1.99-2.8-6.23-.02-12.47.05-18.7-.11-3.11-.08-3.49,1.68-3.35,4.06-.92,2.94-2.11,5.83-2.7,8.84-1.89,9.67-3.55,19.38-5.3,29.07-.36,1.02-.72,2.03-1.08,3.05Z"/>
  <path class="cls-15" d="M118.92,402.44c.69,0,1.38,0,2.07,0,.55.33,1.06.85,1.65.96,9.58,1.74,19.17,3.44,28.76,5.13,25.53,4.5,51.01,9.42,76.64,13.28,10.01,1.51,20.37.62,30.58.82,1.51,3.16,3.01,6.32,4.52,9.48-1.4,3.11-2.8,6.22-4.32,9.6,3.59,1.83,6.94,3.53,10.29,5.24,5.75,13.1,11.49,26.2,17.24,39.3-13.29-6.3-26.58-12.59-40.08-18.99-1.54,3.12-2.92,5.91-4.45,9.01,4.27,2.26,8.2,4.34,12.12,6.42,1.35,1.28,2.49,2.98,4.07,3.78,7.66,3.85,15.44,7.45,23.17,11.15-.34.66-.68,1.32-1.01,1.99-.35.71-.7,1.42-1.05,2.12l.06-.09c-.34.7-.69,1.4-1.03,2.1l.06-.07-7.13,14.02.06-.07c-2.17-.25-4.59.02-6.47-.85-10.7-4.96-21.23-10.3-31.96-15.19-1.46-.67-4.88-.2-5.39.79-1.59,3.04-2.21,6.59-3.2,9.93.33.04.66.08.98.12l-.05-.06c.66.31,1.32.62,1.98.93,11.96,5.8,23.93,11.61,35.89,17.41.38.7.75,1.39,1.13,2.09.06.33-.05.59-.33.78-.55,1.09-1.1,2.17-1.65,3.26l-.86,1.78c-.35.71-.7,1.42-1.05,2.13,0,0,.06-.07.06-.07-2.92,4.45-5.84,8.91-8.76,13.36-11.36-5.43-22.57-10.92-33.92-16.09-2.06-.94-5.85-1.69-6.84-.63-2.1,2.22-2.88,5.69-4.21,8.65l1.33.57c.27.13.36.34.27.63,1.31,1.47,2.35,3.49,3.99,4.32,9.78,4.95,19.67,9.66,29.57,14.35,1.76.83,3.74,1.21,5.61,1.8-.46.97-.92,1.94-1.38,2.9-2.72,4.5-5.49,8.97-8.1,13.53-.34.59.14,1.65.24,2.49-.68,1.65-1.36,3.3-2.17,5.27-13.71-6.64-27.06-13.12-40.6-19.68-1.57,3.17-2.87,5.81-4.3,8.7,13.59,6.63,26.83,13.08,40.29,19.65-4.22,8.65-8.27,16.96-12.39,25.43-13.65-6.62-26.89-13.04-40.31-19.54-2.98,6.14-5.73,11.79-8.68,17.86,38.59,18.78,76.83,37.39,115.29,56.11.97-1.88,1.83-3.47,2.63-5.09,14.23-29.13,28.45-58.25,42.68-87.38,2.22,4.99,4.43,9.98,6.65,14.98-13.06,26.97-26.01,53.99-39.26,80.88-3.96,8.03-12.75,10.28-21.36,6.09-33.89-16.47-67.77-32.98-101.65-49.47-3.41-1.66-6.83-3.28-10.73-5.14-4.55,9.29-8.99,18.35-13.65,27.85-50.1-37.23-100.05-74.36-150.45-111.82,2-4.22,4.07-8.68,6.22-13.1,23.05-47.37,46.1-94.72,69.17-142.08.35-.73.9-1.36,1.36-2.04.63.71,1.17,1.93,1.89,2.05,7.07,1.2,14.17,2.21,21.26,3.28.7,0,1.39.01,2.09.02,3.63.68,7.27,1.36,10.91,2.04.68.03,1.36.06,2.05.08,1.32.3,2.65.61,3.97.91ZM123.4,489.94c.21.26.43.5.67.73-.67,13.94-1.36,27.87-1.98,41.81-.03.67.44,1.68.99,2,6.81,3.93,13.67,7.75,21.1,11.93-.69-20.03-1.42-39.07-1.91-58.13-.05-2.01.6-4.85,1.99-5.94,7.18-5.63,14.75-10.77,22.1-16.17,8.25-6.06,16.41-12.23,25.19-18.77-2.53-1.02-4.47-1.81-6.41-2.57-5.25-2.05-10.91-6.34-15.66-5.5-5,.88-9.18,6.6-13.63,10.31-6.62,5.52-13.17,11.13-19.64,16.61.95-13.44,1.89-26.84,2.84-40.27-7.16-2.76-13.91-5.36-21.04-8.11,0,17.4-.05,34.04.05,50.67.02,2.91-.82,4.79-3.29,6.55-13.9,9.89-27.65,19.98-42.07,30.44,6.34,3.6,12.18,7,18.14,10.19.68.37,2.24-.09,2.95-.69,9.91-8.31,19.74-16.72,29.59-25.1Z"/>
  <path class="cls-3" d="M661.18,210.16c4.63-7.38,9.26-14.75,13.89-22.13,7.76-12.14,15.52-24.27,23.28-36.41,2.91-4.65,5.82-9.29,8.73-13.94,7.95-12.27,15.99-24.49,23.84-36.83,21.26-33.41,42.45-66.87,64.02-100.87,138.52,87.88,276.88,175.66,415.53,263.62-85.8,135.22-171.36,270.08-257.19,405.34-12.54-7.94-24.89-15.74-37.23-23.57-77.88-49.39-155.75-98.78-233.63-148.16-1.4-.89-2.87-1.65-4.3-2.48-8.35-5.12-16.71-10.24-25.06-15.36,0,0,.02.11.02.11-.54-.35-1.08-.69-1.62-1.04-1.16-.95-2.32-1.89-3.49-2.84-1.07-.78-2.11-1.62-3.23-2.33-27.26-17.31-54.53-34.59-81.79-51.9-8.38-5.32-16.72-10.68-25.17-16.07,4.23-6.69,8.16-12.87,12.06-19.07,11.42-18.16,22.83-36.32,34.24-54.49.74-1.17,1.49-2.33,2.23-3.5,3.86-6.09,7.73-12.19,11.59-18.28,3.46-5.26,7.02-10.46,10.36-15.79,6.51-10.38,12.9-20.84,19.35-31.26,4.56-7.12,9.12-14.23,13.68-21.35,6.63-10.48,13.25-20.95,19.88-31.43ZM1182,269.99c-127.14-80.66-253.71-160.95-380.69-241.51-78.53,123.7-156.72,246.87-235.22,370.52,127.11,80.6,253.8,160.93,380.84,241.49,78.48-123.69,156.56-246.76,235.07-370.5Z"/>
  <path class="cls-20" d="M597.92,309.99c-3.86,6.09-7.73,12.19-11.59,18.28-12.05-27.64-24.09-55.28-36.19-82.89-.77-1.76-2.09-3.28-3.15-4.91-1.51-3.57-3.77-.8-5.17-.23-9.36,3.87-18.56,8.11-27.85,12.13-21.32,9.24-42.69,18.37-63.99,27.65-19.94,8.69-39.79,17.59-59.73,26.25-20.84,9.05-41.75,17.92-62.62,26.91-12.79,5.51-25.54,11.11-38.31,16.67-10.65,4.64-21.32,9.24-31.95,13.96-2.78,1.23-2.71,1.4-1.98,3.66.04.32.08.64.12.96.43,1.58.67,3.25,1.31,4.73,8.4,19.42,16.86,38.81,25.3,58.21,31.38,72.1,62.75,144.2,94.18,216.27.88,2.02,2.39,3.77,3.6,5.65,1,.41,2.27,1.43,2.97,1.13,15.27-6.49,30.49-13.1,45.7-19.75,19.77-8.64,39.49-17.41,59.28-26,20.52-8.9,41.14-17.56,61.66-26.46,21.27-9.22,42.47-18.61,63.71-27.9,18.7-8.18,37.44-16.29,56.1-24.56.94-.42,1.33-2.1,1.98-3.19-.05-.35-.09-.69-.14-1.04-.52-1.87-.84-3.82-1.6-5.59-5.09-11.88-10.31-23.71-15.39-35.59-.66-1.53-.76-3.3-1.11-4.97,8.36,5.12,16.71,10.24,25.06,15.36,5.59,13.14,11.19,26.29,17.09,40.15-108.47,47.16-216.77,94.26-325.51,141.54-6.13-14.06-11.9-27.48-17.82-40.85-4.85-10.94-9.86-21.81-14.8-32.72-2.21-5-4.43-9.99-6.65-14.98-3.61-8.56-7.21-17.12-10.82-25.69-.77-1.69-1.54-3.37-2.31-5.06-2.33-5.34-4.67-10.67-7-16.01-5.61-13.05-11.21-26.1-16.82-39.15-2.38-5.25-4.76-10.49-7.14-15.74-5.75-13.1-11.49-26.2-17.24-39.3-1.99-4.95-3.98-9.89-5.97-14.84-1.51-3.16-3.01-6.32-4.52-9.48-.56-1.38-1.13-2.75-1.69-4.13-7.51-17.4-14.98-34.81-22.56-52.19-3.33-7.64-3.42-7.59,4.35-11.02,8.5-3.76,16.99-7.54,25.48-11.3,13.59-5.82,27.19-11.64,40.78-17.46.62-.35,1.24-.69,1.86-1.04,7.41-3.31,14.83-6.63,22.24-9.94,2.36-.92,4.71-1.84,7.07-2.75,12.32-5.33,24.64-10.65,36.96-15.98.63-.37,1.27-.74,1.9-1.1,2.04-.84,4.09-1.68,6.13-2.52.27-.14.54-.29.8-.43,17.74-7.58,35.52-15.09,53.22-22.77,39.09-16.96,78.13-34.01,117.21-50.99,1.49-.65,3.07-1.07,4.89-1.69,1.2,2.32,2.27,4.36,3.33,6.4,7.46,17.36,14.91,34.72,22.36,52.08,2.8,6.46,5.61,12.91,8.41,19.37l6.54,14.84Z"/>
  <path class="cls-4" d="M99.91,399.38c-7.09-1.07-14.19-2.08-21.26-3.28-.73-.12-1.27-1.34-1.89-2.05.1-25.48.27-50.95.29-76.42.05-53.29.04-106.58-.05-159.87,0-3.59.71-5.25,4.7-5.84,15.11-2.23,30.16-4.91,45.22-7.42-2.59.97-5.1,2.35-7.78,2.84-12.19,2.21-24.44,4.04-36.6,6.36-1.44.27-2.72,2.63-3.55,4.29-.53,1.07-.1,2.61-.1,3.95,0,74.75,0,149.5,0,224.26,0,8.14,0,8.1,7.83,9.32,3.92.61,7.81,1.35,11.69,2.19.6.13,1.01,1.1,1.51,1.68Z"/>
  <path class="cls-29" d="M371.94,153.53c-1.9.31-3.8.89-5.69.9-35.78.06-71.56.05-107.34.06.05-.44.11-.88.16-1.32,17.99-.12,35.98-.25,53.96-.36,8-.05,16-.07,24-.1,2.65.25,5.29.51,7.94.76,8.99.02,17.98.05,26.98.07Z"/>
  <path class="cls-4" d="M177.02,136.27c-5.46,1.36-10.88,2.94-16.4,4.01-7.91,1.54-15.88,2.82-23.86,3.96-2.2.31-4.53-.27-6.8-.44,15.3-2.73,30.59-5.46,45.89-8.15.34-.06.77.39,1.16.61Z"/>
  <path class="cls-4" d="M257.21,126.54c-15.14-1.33-29.85,1.92-44.66,4.13-.88.13-1.87-.53-2.81-.82,14.46-2.35,28.7-6.55,43.58-5.28,1.34.11,2.59,1.29,3.89,1.98Z"/>
  <path class="cls-4" d="M207.92,130.37c-.59.68-1.12,1.86-1.79,1.95-6.22.77-12.46,1.35-18.69,1.99,6.83-1.31,13.65-2.62,20.48-3.93Z"/>
  <path class="cls-4" d="M259.06,153.17c-.05.44-.11.88-.16,1.32-3.93-1.47-4.52-4.16-1.76-8.04.64,2.24,1.28,4.48,1.93,6.72Z"/>
  <path class="cls-4" d="M257.13,137.51c0-1.35,0-2.7,0-4.05,0,1.35,0,2.7,0,4.05Z"/>
  <path class="cls-4" d="M185.31,135.43c-.43.03-.86.05-1.28.08.46-.28.92-.55,1.39-.83-.03.25-.07.5-.1.75Z"/>
  <path class="cls-4" d="M257.13,131.51c.01-.69.02-1.37.04-2.06-.01.69-.02,1.37-.04,2.06Z"/>
  <path class="cls-26" d="M698.35,151.63c-7.76,12.14-15.52,24.27-23.28,36.41-1.22-2.32-2.43-4.65-3.85-7.35-12.55,5.36-25.39,10.02-37.41,16.24-10.41,5.39-19.7,6.29-30.28.6-8.41-4.52-17.72-7.36-27.07-11.12,9.66-24.18,19.13-47.92,28.8-72.12,31.21,12.52,62.16,24.93,93.1,37.34Z"/>
  <path class="cls-17" d="M511.19,158.69c-11.66,14.63-22.93,28.83-34.26,42.97-17.05,21.29-34.22,42.49-51.16,63.86-2.81,3.55-5.01,4.72-9.31,2.11-5.52-3.34-11.52-5.93-17.44-8.55-2.42-1.07-3.15-2.36-2.87-4.92,3.15-28.29,6.21-56.59,9.28-84.89,1.54-14.2,3.04-28.4,4.6-42.95,8.17,2.55,15.88,4.96,24.04,7.51-4.46,33.63-8.9,67.1-13.34,100.57l.83.31c5.85-7.98,11.7-15.95,17.53-23.93,13.93-19.05,27.9-38.07,41.74-57.18,2.03-2.8,3.88-3.81,7.4-2.5,7.31,2.72,14.81,4.92,22.96,7.58ZM420.79,235.94c-.08-.11-.17-.21-.25-.32-.1.1-.19.19-.29.29.13.11.25.22.38.33.05-.1.1-.2.15-.29Z"/>
  <path class="cls-25" d="M597.92,309.99c-2.18-4.95-4.36-9.9-6.54-14.84,2.34-4.51,4.67-9.01,7.39-14.27-5.77-1.86-10.79-3.48-15.81-5.1-7.45-17.36-14.9-34.72-22.36-52.08,2.19-4.71,4.4-9.42,6.56-14.15.89-1.94,1.66-3.93,2.68-6.35,12.58,5.03,24.97,9.91,37.26,15.02,1.25.52,2.16,2.35,2.78,3.78,5.97,13.62,11.84,27.28,17.74,40.94-6.44,10.43-12.83,20.88-19.34,31.26-3.34,5.33-6.9,10.53-10.36,15.79Z"/>
  <path class="cls-22" d="M661.18,210.16c-6.63,10.48-13.25,20.95-19.88,31.43-2.89-6.81-5.79-13.63-8.93-21.04,2.33-1.08,4.47-2.12,6.64-3.07,5.88-2.58,11.73-5.24,17.71-7.6,1.25-.5,2.96.16,4.46.29Z"/>
  <path class="cls-28" d="M381.95,292.76c-.27.15-.54.29-.8.43-.06-31.88-.12-63.76-.18-95.64-.01-7.47-.06-14.95.04-22.42.02-1.56.63-3.1.97-4.66,0,40.76-.02,81.52-.03,122.28Z"/>
  <path class="cls-4" d="M371.94,153.53c-8.99-.02-17.98-.05-26.98-.07,3.54-.33,7.07-.84,10.62-.94,5.46-.16,10.92-.03,16.39-.03,0,.35-.02.69-.03,1.04Z"/>
  <path class="cls-21" d="M373.11,296.82c-12.32,5.33-24.64,10.65-36.97,15.98-25.74-.03-51.47-.07-77.2-.1-.46-.42-.93-.84-1.39-1.25,0-4.97,0-9.93,0-14.9.16-.56.32-1.13.49-1.69,19.3.02,38.59.04,57.89.05,9.32,0,18.63.09,27.95-.07,1.33-.02,3.77-1.2,3.77-1.84,0-3.87-.57-7.73-.97-11.86-15,0-29.94-.04-44.89.01-14.3.04-28.6.17-42.89.26.03-6,.05-11.99.08-17.99,18.93.07,37.86.16,56.79.22,9.63.03,19.27-.05,28.9.03,2.33.02,4.09-.12,3.21-3.16,0-.34,0-.68,0-1.02v-9.52c-29.23,0-58.1,0-86.97,0-1-.15-1.99-.31-2.99-.46-.08-.67-.16-1.33-.25-2,.08-5.03.17-10.06.25-15.08h89.53v-13.84c-2.38,0-4.69,0-7,0-27.15.08-54.29.16-81.44.24-.04-6.08-.09-12.16-.13-18.23,29.36.01,58.73.03,88.09.04.49-4.36.98-8.73,1.52-13.54h-90.81v-21.65c.43-1.03.86-2.05,1.29-3.08,37,.03,74,.05,111,.08.99.68,1.98,1.36,2.97,2.04-.1.99-.3,1.98-.3,2.97-.02,41.98-.02,83.96,0,125.95,0,1.14.3,2.28.46,3.42Z"/>
  <path class="cls-18" d="M143.96,318.49c-.36.45-.72.9-1.08,1.35-6.63-.21-13.25-.42-19.88-.63-.26-.26-.53-.53-.79-.79-.11-1.34-.22-2.68-.33-4.02.09-.09.25-.19.24-.26-.03-.21-.13-.42-.21-.63-.3-2-.59-4-.89-6-.11-.33-.22-.65-.33-.98-.43-2.05-.86-4.1-1.29-6.15-.14-.69-.28-1.38-.42-2.07-.76-3.94-1.52-7.89-2.28-11.83-.16-.56-.33-1.13-.49-1.69-3.63-19.22-7.27-38.44-10.98-58.06h18.1c3.18,19.24,6.3,38.13,9.43,57.02.71,0,1.42,0,2.13,0,.37-1.68.73-3.37,1.1-5.05l1.16-2.23c.07-.43.13-.86.2-1.29.56-2.54,1.13-5.08,1.69-7.62.24-.69.48-1.37.72-2.06,2.74-12.99,5.49-25.99,8.23-38.98,1.21-.84,2.38-2.32,3.65-2.41,5.74-.41,11.5-.42,17.26-.57,4.42,22.69,8.85,45.38,13.27,68.07l1.07.03c4.04-23.28,8.08-46.56,12.2-70.31,6.94-.32,13.73-.63,20.51-.94,0,0,.13.09.13.09-.47,2.27-.91,4.56-1.43,6.82-6.92,30.12-13.94,60.22-20.68,90.38-.86,3.84-2.91,4.95-6.18,4.98-4.15.04-8.31-.27-12.45-.16-3.93.11-5.29-1.89-5.31-5.46-.01-1.46-.17-2.95-.46-4.38-2.43-11.88-4.91-23.76-7.36-35.64-1.51-7.35-2.99-14.7-4.48-22.05-1.63,4.24-2.55,8.4-3.31,12.59-1.21,6.63-2.31,13.29-3.46,19.93-.08.64-.16,1.28-.23,1.93-2.25,9.7-4.5,19.39-6.75,29.09Z"/>
  <path class="cls-6" d="M150.95,287.48c1.15-6.64,2.26-13.3,3.46-19.93.76-4.19,1.68-8.35,3.31-12.59,1.49,7.35,2.97,14.71,4.48,22.05,2.45,11.88,4.93,23.75,7.36,35.64.29,1.43.45,2.92.46,4.38.03,3.57,1.38,5.57,5.31,5.46,4.15-.12,8.3.19,12.45.16,3.27-.03,5.32-1.14,6.18-4.98,6.74-30.16,13.76-60.26,20.68-90.38.52-2.26.96-4.55,1.43-6.82.46,1.98,1.65,4.12,1.26,5.91-3.99,18.24-8.22,36.42-12.41,54.62-3,13.03-5.89,26.08-9.25,39.02-.47,1.81-3.28,3.05-5.07,4.46-.31.25-.97.07-1.47.06-24.41-.48-17.65,3.61-24.04-22.31-2.45-9.92-4.29-20-6.4-30.01-.4-1.91-.79-3.83-1.35-6.57-1.55,6.84-2.86,12.94-4.37,18.99-.26,1.05-1.34,1.9-2.04,2.84Z"/>
  <path class="cls-18" d="M304.98,326.53c-13.6,5.82-27.19,11.64-40.78,17.46-1.95-.14-3.91-.29-6.08-.45v-16.72c1.25-.19,2.5-.38,3.75-.57,14.37.09,28.74.19,43.11.28Z"/>
  <path class="cls-28" d="M347.87,260.51c.88,3.04-.89,3.18-3.21,3.16-9.63-.08-19.27,0-28.9-.03-18.93-.06-37.86-.14-56.79-.22,1.3-.63,2.6-1.81,3.91-1.82,23.81-.11,47.62-.1,71.43-.04,1.63,0,3.26.51,4.89.77,6.07.95,6.77.08,6.86-6.04.06-4.29-2.5-3.84-5.21-3.84-26.97,0-53.94,0-80.92,0,.33-.82.66-1.65,1-2.48h86.97v9.52c-.13.1-.37.23-.36.28.08.26.23.5.35.74Z"/>
  <path class="cls-29" d="M259.02,218.83c27.15-.08,54.29-.16,81.44-.24,2.31,0,4.62,0,7,0v13.84c-29.7,0-59.61,0-89.53,0,.14-.31.16-.62.07-.95,1.89-.33,3.77-.95,5.66-.95,25.3-.06,50.61-.04,75.91-.04,1.82,0,3.63,0,5.93,0v-9.99c-2.09,0-4.04,0-5.98,0-25.14,0-50.27.03-75.41-.07-1.7,0-3.39-1.05-5.09-1.61Z"/>
  <path class="cls-6" d="M215.95,220.37c-6.78.31-13.56.62-20.51.94-4.12,23.75-8.16,47.03-12.2,70.31l-1.07-.03c-4.42-22.69-8.85-45.38-13.27-68.07-.01-.33-.01-.66,0-.99.69.93,1.79,1.78,2,2.8,3.11,15.16,6.06,30.36,9.13,45.53.66,3.27,1.61,6.47,2.71,10.8,1.17-6.85,2.16-12.64,3.16-18.43,1.81-10.5,3.63-21,5.43-31.51.25-1.46.5-2.93.57-4.41.33-6.47,2.71-8.8,9.1-8.81,3.66,0,7.32-.18,10.96.07,1.36.09,2.66,1.17,3.98,1.8Z"/>
  <path class="cls-11" d="M137.36,275.17c-.07.43-.13.86-.2,1.29-.39.74-.77,1.49-1.16,2.23-.37,1.68-.73,3.37-1.1,5.05-.71,0-1.42,0-2.13,0-3.12-18.89-6.25-37.78-9.43-57.02h-18.1c3.71,19.63,7.34,38.84,10.98,58.06.16.56.33,1.13.49,1.69.76,3.94,1.52,7.89,2.28,11.83.14.69.28,1.38.42,2.07.43,2.05.86,4.1,1.29,6.15-.09.13-.29.33-.27.37.17.22.39.41.59.61.3,2,.59,4,.89,6-.05.29-.06.59-.04.88.11,1.34.22,2.68.33,4.02-1.76-6.95-3.66-13.87-5.23-20.86-2.36-10.49-4.64-21-6.68-31.55-2.29-11.85-4.29-23.75-6.35-35.64-.22-1.28-.03-2.63-.03-4.7h21.49c2.81,17.16,5.75,35.05,8.78,53.55.72-2.39,1.22-4.07,1.72-5.74.48.57.97,1.13,1.45,1.7Z"/>
  <path class="cls-4" d="M256.93,418.5c.56,1.38,1.13,2.75,1.69,4.13-10.2-.2-20.57.69-30.58-.82-25.63-3.86-51.1-8.78-76.64-13.28-9.59-1.69-19.18-3.39-28.76-5.13-.59-.11-1.1-.63-1.65-.96,1.06-.23,2.19-.82,3.18-.64,17.69,3.15,35.36,6.42,53.04,9.61,14.88,2.68,29.71,5.69,44.66,7.82,10.11,1.44,20.4,1.72,30.63,2.16,1.43.06,2.95-1.88,4.43-2.89Z"/>
  <path class="cls-11" d="M373.11,296.82c-.16-1.14-.46-2.28-.46-3.42-.02-41.98-.02-83.96,0-125.95,0-.99.2-1.98.3-2.97.48-.65.95-1.3,2.07-2.83,0,45.24,0,89.65,0,134.06-.63.37-1.27.74-1.9,1.1Z"/>
  <path class="cls-29" d="M258.89,281.42c14.3-.09,28.59-.22,42.89-.26,14.95-.05,29.89-.01,44.89-.01.4,4.12.96,7.99.97,11.86,0,.64-2.44,1.82-3.77,1.84-9.31.16-18.63.08-27.95.07-19.3-.02-38.59-.04-57.89-.05.11-.22.09-.42-.06-.61,0-.22,0-.44.01-.67.32,0,.64-.01.96-.07.34-.31.68-.62,1.02-.93,9.79,0,19.57-.13,29.36,0,17.29.22,34.59.44,51.87,1,4.83.16,4.85-2.25,4.86-5.78,0-3.46-.32-5.42-4.74-5.38-25.61.21-51.22.13-76.83.06-1.87,0-3.73-.7-5.6-1.07Z"/>
  <path class="cls-11" d="M257.68,165.45v21.65h90.81c-.54,4.81-1.03,9.18-1.52,13.54-.34-.71-.68-1.43-1.03-2.14v-9c-2.53,0-4.47,0-6.41,0-25.76,0-51.52,0-77.29,0-5.62,0-6.46-.97-6.36-6.56.1-5.93.02-11.86.02-18.06.34.11,1.05.34,1.77.58Z"/>
  <path class="cls-29" d="M369.97,162.44c-37-.03-74-.05-111-.08,1.32-.62,2.63-1.78,3.95-1.79,34.83-.1,69.66-.1,104.49,0,.85,0,1.7,1.22,2.55,1.87Z"/>
  <path class="cls-11" d="M258.95,312.7c25.73.03,51.47.07,77.2.1-2.35.92-4.71,1.84-7.07,2.75-1.89-.35-3.78-.99-5.68-1-19.82-.07-39.64,0-59.46-.12-1.67-.01-3.33-1.13-5-1.73Z"/>
  <path class="cls-11" d="M304.98,326.53c-14.37-.09-28.74-.19-43.11-.28-.66-.42-1.31-.85-2.65-1.71,15.79,0,30.88-.01,45.97.04.55,0,1.1.6,1.65.91-.62.35-1.24.69-1.86,1.04Z"/>
  <path class="cls-6" d="M148,226.5c-2.74,12.99-5.49,25.99-8.23,38.98-.3-.36-.61-.73-.91-1.09,1.75-9.69,3.41-19.4,5.3-29.07.59-3.01,1.78-5.9,2.7-8.84.38,0,.76.01,1.14.02Z"/>
  <path class="cls-29" d="M345.95,198.49c.34.71.68,1.43,1.03,2.14-29.36-.01-58.73-.03-88.09-.04,1.86-.38,3.72-1.09,5.58-1.09,25.27-.07,50.54-.03,75.8-.09,1.9,0,3.79-.6,5.68-.92Z"/>
  <path class="cls-6" d="M143.96,318.49c2.25-9.7,4.5-19.39,6.75-29.09.31.84,1.04,1.77.87,2.51-1.79,8.11-3.68,16.21-5.67,24.28-.22.88-1.28,1.54-1.95,2.3Z"/>
  <path class="cls-11" d="M148,226.5c-.38,0-.76-.01-1.14-.02-.14-2.39.24-4.14,3.35-4.06,6.23.16,12.46.09,18.69.11-.01.33-.01.66,0,.99-5.76.15-11.52.17-17.26.57-1.27.09-2.43,1.57-3.65,2.41Z"/>
  <path class="cls-11" d="M123,319.21c6.63.21,13.25.42,19.88.63-.26.73-.56,2.12-.76,2.11-6.07-.45-12.13-1.02-18.19-1.65-.34-.04-.62-.71-.93-1.08Z"/>
  <path class="cls-4" d="M258,231.48c.09.32.07.64-.07.95-.08,5.03-.17,10.06-.25,15.08-.64-.14-1.55-.06-1.88-.45-1.61-1.92.16-13.88,2.19-15.58Z"/>
  <path class="cls-11" d="M257.55,296.55c0,4.97,0,9.93,0,14.9-.54-1.02-1.45-2-1.56-3.06-.37-3.37-.55-6.76-.53-10.15,0-.56,1.36-1.12,2.09-1.68Z"/>
  <path class="cls-4" d="M112.9,401.44c-3.64-.68-7.27-1.36-10.91-2.04,4.07-1.63,7.67-.74,10.91,2.04Z"/>
  <path class="cls-6" d="M137.36,275.17c-.48-.57-.97-1.13-1.45-1.7.03-1,.05-1.99.08-2.99.31-.33.62-.67.92-1,.29-.68.58-1.36.87-2.04.42.04.85.07,1.27.11-.56,2.54-1.13,5.08-1.69,7.62Z"/>
  <path class="cls-4" d="M260.92,249.97c-.33.83-.66,1.65-1,2.48-1.07-.64-2.14-1.29-3.22-1.93.41-.34.82-.67,1.22-1.01,1,.15,1.99.31,2.99.46Z"/>
  <path class="cls-4" d="M118.92,402.44c-1.32-.3-2.65-.61-3.97-.91,1.32.3,2.65.61,3.97.91Z"/>
  <path class="cls-11" d="M139.05,267.55c-.42-.03-.84-.07-1.27-.11.36-1.02.72-2.03,1.08-3.05.3.36.61.73.91,1.09-.24.69-.48,1.37-.72,2.06Z"/>
  <path class="cls-11" d="M136.91,269.48c-.31.33-.62.67-.92,1,.31-.33.62-.67.92-1Z"/>
  <path class="cls-11" d="M259.97,292.59c-.34.31-.68.62-1.02.93.34-.31.68-.62,1.02-.93Z"/>
  <path class="cls-11" d="M257.99,293.58c-.01.22-.02.45-.01.67-.14-.16-.27-.33-.41-.49.14-.06.28-.12.42-.18Z"/>
  <path class="cls-22" d="M310.31,541.14c2.33,5.34,4.67,10.67,7,16-13.93-6.84-27.85-13.68-42.07-20.66-4.27,8.75-8.3,16.99-12.49,25.58,15.49,7.54,30.67,14.93,46.25,22.52,3.66-7.71,7.14-15.04,10.63-22.37,3.6,8.56,7.21,17.13,10.82,25.69-14.22,29.12-28.44,58.25-42.67,87.38-.79,1.62-1.65,3.21-2.63,5.09-38.46-18.72-76.7-37.33-115.29-56.11,2.95-6.07,5.69-11.72,8.68-17.86,13.41,6.5,26.65,12.92,40.31,19.54,4.12-8.46,8.17-16.77,12.39-25.43-13.47-6.57-26.71-13.03-40.29-19.65,1.43-2.89,2.73-5.53,4.3-8.7,13.54,6.56,26.9,13.04,40.6,19.68.81-1.98,1.49-3.63,2.17-5.27,2.62-5.34,5.24-10.68,7.86-16.02.46-.97.92-1.94,1.38-2.9-.47-.75-.77-1.85-1.44-2.18-12.55-6.15-25.15-12.21-37.73-18.29.09-.29,0-.5-.27-.63,1.41-2.95,2.82-5.9,4.33-9.05,13.63,6.61,26.78,12.99,40.44,19.61,2.63-5.66,5.14-11.04,7.64-16.42,0,0-.06.07-.06.07.35-.71.7-1.42,1.05-2.13.29-.59.57-1.18.86-1.78.55-1.09,1.1-2.17,1.65-3.26.29-.18.4-.44.33-.78-.38-.7-.75-1.39-1.13-2.09-11.96-5.8-23.93-11.61-35.89-17.41-.66-.31-1.32-.62-1.98-.93,0,0,.05.06.05.06,1.25-3.33,2.5-6.67,3.9-10.39,13.76,6.67,26.95,13.07,40.67,19.72.54-1.51,1-2.82,1.47-4.13,0,0-.06.07-.06.07,2.38-4.67,4.75-9.34,7.13-14.02,0,0-.06.07-.06.07.34-.7.69-1.4,1.03-2.1,0,0-.06.09-.06.09.35-.71.7-1.42,1.05-2.12.34-.66.68-1.32,1.01-1.99-.33-.8-.45-2.05-1.03-2.34-8.7-4.27-17.47-8.41-26.22-12.58-3.93-2.08-7.85-4.16-12.12-6.42,1.53-3.1,2.91-5.89,4.45-9.01,13.5,6.4,26.79,12.69,40.08,18.99,2.38,5.25,4.76,10.49,7.14,15.73-.55.11-1.45.06-1.6.37-3.97,7.96-7.86,15.96-12.05,24.55,10.37,4.84,20.42,9.54,30.47,14.24ZM279.7,612.92l-.05-.06c4.04,2.1,8.07,4.21,12.5,6.52,2.1-4.72,3.9-8.78,5.71-12.84.07-.56.13-1.12.2-1.69.29-.44.59-.88.88-1.31.16-.22.2-.45.12-.71,1.81-2.83,3.61-5.65,5.63-8.81-15.94-7.74-31.23-15.17-46.5-22.59-4.25,8.74-8.21,16.87-12.35,25.4,2.47,1.05,4.72,2.01,6.96,2.97,0,0-.08-.06-.08-.06,1.74.89,3.48,1.77,5.22,2.66.91.41,1.82.83,2.74,1.24.78.39,1.56.78,2.33,1.17h.19c5.5,2.7,11,5.4,16.5,8.1ZM275.4,653.5c4.2-8.67,8.18-16.86,12.36-25.48-15.59-7.59-30.87-15.03-46.19-22.49-4.2,8.7-8.19,16.98-12.31,25.5,15.51,7.55,30.56,14.88,46.14,22.47Z"/>
  <path class="cls-13" d="M123.4,489.94c-9.85,8.38-19.68,16.79-29.59,25.1-.71.6-2.27,1.06-2.95.69-5.96-3.2-11.81-6.6-18.14-10.19,14.41-10.46,28.16-20.56,42.07-30.44,2.47-1.76,3.31-3.64,3.29-6.55-.11-16.63-.05-33.27-.05-50.67,7.13,2.75,13.88,5.35,21.04,8.11-.95,13.43-1.89,26.83-2.84,40.27,6.47-5.48,13.02-11.09,19.64-16.61,4.45-3.71,8.63-9.44,13.63-10.31,4.75-.83,10.41,3.45,15.66,5.5,1.94.76,3.88,1.55,6.41,2.57-8.78,6.55-16.94,12.71-25.19,18.77-7.36,5.41-14.92,10.54-22.1,16.17-1.39,1.09-2.05,3.93-1.99,5.94.5,19.06,1.22,38.1,1.91,58.13-7.43-4.18-14.3-8.01-21.1-11.93-.55-.32-1.02-1.33-.99-2,.61-13.94,1.3-27.88,1.98-41.81.14-.32.27-.64.41-.97-.36.08-.72.16-1.08.23Z"/>
  <path class="cls-9" d="M260.2,540.68c-2.5,5.38-5.01,10.76-7.64,16.42-13.66-6.62-26.81-13-40.44-19.61-1.5,3.14-2.91,6.1-4.33,9.05l-1.33-.57c1.32-2.96,2.11-6.43,4.21-8.65.99-1.05,4.78-.31,6.84.63,11.35,5.18,22.56,10.66,33.92,16.09,2.92-4.45,5.84-8.9,8.76-13.36Z"/>
  <path class="cls-9" d="M271.13,517.62c-.47,1.31-.93,2.62-1.47,4.13-13.71-6.65-26.91-13.05-40.67-19.72-1.4,3.72-2.65,7.05-3.9,10.39-.33-.04-.66-.08-.98-.12,1-3.35,1.62-6.89,3.2-9.93.51-.99,3.93-1.46,5.39-.79,10.73,4.9,21.25,10.24,31.96,15.19,1.88.87,4.3.6,6.47.85Z"/>
  <path class="cls-9" d="M208.06,547.16c12.59,6.08,25.18,12.14,37.73,18.29.67.33.97,1.44,1.44,2.18-1.88-.59-3.85-.97-5.61-1.8-9.9-4.69-19.8-9.4-29.57-14.35-1.64-.83-2.67-2.85-3.99-4.32Z"/>
  <path class="cls-21" d="M263.14,432.12c1.99,4.95,3.98,9.89,5.97,14.84-3.35-1.7-6.7-3.41-10.29-5.23,1.52-3.39,2.92-6.49,4.32-9.6Z"/>
  <path class="cls-9" d="M253.94,482.7c8.75,4.17,17.51,8.31,26.22,12.58.59.29.7,1.54,1.03,2.34-7.74-3.69-15.52-7.3-23.17-11.15-1.59-.8-2.73-2.49-4.07-3.78Z"/>
  <path class="cls-9" d="M245.86,570.54c-2.62,5.34-5.24,10.68-7.86,16.02-.1-.84-.58-1.9-.24-2.49,2.61-4.56,5.38-9.03,8.1-13.53Z"/>
  <path class="cls-9" d="M278.2,503.68c-2.38,4.67-4.76,9.34-7.13,14.02,2.38-4.67,4.75-9.34,7.13-14.02Z"/>
  <path class="cls-9" d="M262.91,530.72c.38.7.75,1.39,1.13,2.09-.38-.7-.75-1.39-1.13-2.09Z"/>
  <path class="cls-9" d="M225.04,512.37c.66.31,1.32.62,1.98.93-.66-.31-1.32-.62-1.98-.93Z"/>
  <path class="cls-9" d="M263.71,533.59c-.55,1.09-1.1,2.17-1.65,3.26.55-1.09,1.1-2.17,1.65-3.26Z"/>
  <path class="cls-9" d="M280.17,499.61c-.35.71-.7,1.42-1.05,2.12.35-.71.7-1.42,1.05-2.12Z"/>
  <path class="cls-9" d="M261.19,538.62c-.35.71-.7,1.42-1.05,2.13.35-.71.7-1.42,1.05-2.13Z"/>
  <path class="cls-9" d="M279.18,501.64c-.35.7-.69,1.4-1.03,2.1.35-.7.69-1.4,1.03-2.1Z"/>
  <path class="cls-23" d="M1182,269.99c-78.51,123.74-156.59,246.81-235.07,370.5-127.05-80.56-253.73-160.89-380.84-241.49,78.5-123.65,156.69-246.82,235.22-370.52,126.99,80.56,253.56,160.86,380.69,241.51ZM861.95,439.43c.8-1.86,1.51-3.13,1.91-4.5,20.78-72.55,41.52-145.11,62.36-217.63.84-2.91.44-4.56-2.16-6.18-10.9-6.77-21.75-13.63-32.5-20.63-2.87-1.87-4.26-.93-6.11,1.42-3.48,4.44-6.92,9.06-11.09,12.79-50.68,45.32-101.49,90.48-152.25,135.7-2.14,1.9-4.12,3.98-6.6,6.4,9.18,5.84,17.56,10.95,25.67,16.46,3.13,2.12,5.03,1.73,7.66-.75,13.57-12.81,27.37-25.39,40.96-38.17,2.52-2.37,4.32-3.04,7.6-.89,15.62,10.22,31.41,20.17,47.26,30.03,3.03,1.89,3.97,3.53,2.8,7.17-5.51,17.13-10.44,34.44-16.11,51.51-1.84,5.53-.67,8.39,4.31,11.09,6.43,3.48,12.43,7.77,18.64,11.67,2.35,1.47,4.78,2.82,7.66,4.52ZM918.42,475.55c1.14-1.55,2.08-2.68,2.86-3.92,28.12-44.29,56.19-88.62,84.39-132.86,1.96-3.07,1.33-4.68-1.46-6.4-7.37-4.55-14.65-9.24-21.99-13.84-5.55-3.47-5.53-3.43-9.12,2.25-16.23,25.6-32.48,51.19-48.73,76.78-11.33,17.86-22.69,35.7-33.96,53.61-1.19,1.89-3.84,4.12-.41,6.32,9.36,6.01,18.77,11.93,28.43,18.05ZM1017.17,309.43c10.67-.02,20.76-10.93,20.68-22.35-.08-10.83-10.76-20.74-22.29-20.68-10.82.06-20.89,10.61-21.08,22.08-.18,10.63,11.03,20.98,22.7,20.95Z"/>
  <path class="cls-24" d="M584.1,331.77c-11.41,18.16-22.82,36.33-34.24,54.49-3.9,6.2-7.83,12.38-12.06,19.07,8.44,5.39,16.79,10.76,25.17,16.07,27.26,17.3,54.53,34.59,81.79,51.9,1.12.71,2.15,1.55,3.23,2.33,3.49,8.59,6.91,17.21,10.47,25.77,3.11,7.46,6.38,14.86,9.64,22.43-11.46,5.04-22.38,9.88-33.32,14.64-21.77,9.47-43.55,18.88-65.32,28.34-18.89,8.21-37.77,16.45-56.66,24.66-22.08,9.61-44.17,19.21-66.26,28.81-20.72,9.01-41.45,17.99-62.15,27.04-3.26,1.43-5.03.68-6.46-2.69-6.83-16.05-13.89-32-20.82-48.01-9.16-21.19-18.21-42.43-27.43-63.6-10.74-24.68-21.64-49.29-32.41-73.95-9.77-22.38-19.46-44.79-29.16-67.19-3.09-7.13-6.11-14.3-9.4-22,96.14-41.78,191.87-83.39,287.79-125.08.91,1.74,1.85,3.31,2.58,4.97,6.79,15.52,13.62,31.03,20.29,46.61,5.03,11.75,9.82,23.59,14.72,35.4ZM481.2,389.78l.07-.06c-4.2,1.93-6.16,5.15-5.56,9.8l.06-.17c-1.78,1.56-4.55,3.01-.56,5.19.61,6.66,1.21,13.33,1.82,19.99-.65.26-1.3.52-1.96.78.95,1.91,1.91,3.83,2.86,5.74.29-.1.58-.19.87-.29.07-.77.13-1.54.2-2.32.56.71,1.12,1.43,1.68,2.14-.08.12-.25.31-.22.36.15.21.36.38.55.56,1.41,1.62,2.82,3.25,4.23,4.87-.18.57-.37,1.15-.55,1.72.47-.27.94-.53,1.4-.8.4.44.8.89,1.2,1.33l4.11,2.76c.56.26,1.12.53,1.67.79.57,3.55,2.95,3.5,5.64,2.85.34-.14.68-.28,1.02-.41,3.87,3.77,8.38,4.7,12.43,2.56,1.27.12,2.55.24,3.82.36,2.74,3.3,5.46,3.05,8.17-.03.94.33,1.89.66,2.83.99,3.23.86,6.47,1.72,9.7,2.58.42-.02.83-.04,1.25-.05.73.41,1.47.81,2.2,1.22.96,1.09,1.93,2.18,2.89,3.28-3.71,2.39-.24,3.48.9,4.99.02.34.03.68.05,1.02-.62,1.16-1.25,2.31-1.87,3.47-.77.96-1.55,1.91-2.32,2.87-.91.63-1.81,1.26-2.72,1.89-3.86,1.62-7.72,3.25-11.58,4.87-.5.3-1,.59-1.5.89-3.67.36-7.33.72-11,1.07-1.82-3.59-8.99-4.26-12.01-1.12-.34.69-.68,1.38-1.03,2.07-.54.46-1.63,1.15-1.54,1.35,2.9,6.78,5.9,13.52,8.96,20.22.02.04,1.06-.39,1.62-.59.37-.01.73-.02,1.1-.03,1.64.61,3.27,1.22,4.91,1.83,1.02.74,2.05,2.14,3.05,2.12,11.18-.26,21.58-3.3,31.75-9.41-1.27-.39-1.99-.61-2.71-.83,6.6-5.96,13.21-11.91,19.81-17.87.3.63.59,1.26.89,1.88.6.03,1.2.05,1.8.08,1.36-6.73,2.87-13.44,3.94-20.22.16-1.02-1.71-2.36-2.64-3.55.06-.66.11-1.33.17-1.99.57-1.1,1.89-2.49,1.59-3.25-1.73-4.43-3.38-9.02-6.01-12.92-1.38-2.05-2.86-6.17-7.14-4.08l-.28-.19-1.07-3.94c-.73.49-1.47.99-2.2,1.48-7-2.34-13.99-4.68-20.99-7.02-1.13-4.23-4.67-2.66-7.4-3.1-6.8-1.1-13.73-1.78-20.31-3.66-2.11-.6-4.27-4.31-4.57-6.82-.2-1.69,2.6-4.03,4.47-5.58,1.6-1.33,3.83-1.88,5.72-2.89,3.07-1.64,6.09-3.37,9.13-5.06l2.98-1.1c2.76,3.37,10.27,3.06,12.1-.5.37-.8.74-1.6,1.11-2.39.76-.66,2.3-1.61,2.18-1.92-2.19-5.68-4.52-11.3-7-16.86-.28-.64-1.66-.78-2.54-1.16l-1.76-.08c-.7-.26-1.4-.52-2.11-.78-2.01-2.71-3.86-4.17-4.95.61-1.33.1-2.67.21-4,.31-.74-.63-1.49-1.26-2.23-1.89l-2.76,3.53c-1.34.4-2.68.8-4.02,1.2,0-.37,0-.74.01-1.1-3.34-2.49-12.06,1.9-13.06,6.58-.96.58-1.92,1.16-2.88,1.74l-4.46.36c.57.54,1.13,1.08,1.7,1.63l-3.2,2.09c-3.47-.68-5.51,1.4-5.91,6.03ZM443.48,388.09s-.08-.06-.08-.06c-.23-1.14-.06-2.67-.74-3.35-6.75-6.7-15.17-10.22-24.4-11.67-1.33-.21-5.02-2.49-5.16,2.01-.7-.08-1.41-.16-2.11-.24-.55-.75-1.14-2.18-1.64-2.15-2.46.13-5.96-1.42-6.31,3.09l-3.06.27c.1-.75.2-1.5.37-2.79-4.61,1.27-8.89,2.01-12.82,3.61-11.38,4.62-22.67,9.49-33.89,14.48-3.14,1.4-6.48,3.05-8.73,5.5-1.47,1.6-2.29,5.31-1.48,7.27,8.45,20.22,17.23,40.31,26.11,60.35.89,2.01,3.07,3.45,4.65,5.15.3.65.61,1.29.91,1.94-2.38,2.29-1.56,4.26,2.48,6.01l-.03.26-.26.04c-.34,2.57-1.14,5.37,2.93,5.65.29.68.58,1.36.87,2.04-2.49,2.26-1.52,4.5,2.54,5.87.2.9.39,1.79.58,2.69-.11.28-.21.57-.32.85.18-.22.36-.45.54-.67.72,1.03,1.63,1.98,2.12,3.12,6.93,15.94,13.76,31.93,20.77,47.84.72,1.64,2.4,2.87,3.63,4.29-.21.86-.42,1.71-.81,3.31,7.66-3.41,14.62-6.44,21.49-9.67.6-.28.57-1.91.83-2.91-.24-2.2.03-4.61-.79-6.56-6.29-14.87-12.69-29.7-19.33-44.41-1.51-3.34-.65-4.42,2.33-5.97,8.82-4.59,18.03-8.78,25.95-14.66,13.91-10.34,21.12-24.59,19.72-42.34-.81-10.3-4.76-19.64-9.66-28.62.38-1.13.77-2.26,1.15-3.39-1.07-.04-2.15-.08-3.22-.12-.73-.76-1.46-1.53-2.19-2.29.26-.92.52-1.84.78-2.77-1.24-.32-2.47-.64-3.71-.97Z"/>
  <path class="cls-8" d="M584.1,331.77c-4.9-11.8-9.7-23.65-14.72-35.4-6.66-15.58-13.5-31.08-20.29-46.61-.73-1.66-1.67-3.23-2.58-4.97-95.92,41.69-191.65,83.29-287.79,125.08,3.29,7.7,6.31,14.87,9.4,22,9.7,22.41,19.4,44.82,29.16,67.19,10.77,24.67,21.66,49.28,32.41,73.95,9.21,21.17,18.26,42.41,27.43,63.6,6.92,16.01,13.99,31.96,20.82,48.01,1.43,3.36,3.2,4.11,6.46,2.69,20.7-9.06,41.43-18.03,62.15-27.04,22.09-9.6,44.18-19.2,66.26-28.81,18.89-8.22,37.77-16.46,56.66-24.66,21.77-9.46,43.56-18.87,65.32-28.34,10.95-4.76,21.86-9.6,33.32-14.64-3.26-7.57-6.53-14.96-9.64-22.43-3.57-8.56-6.99-17.18-10.47-25.77,1.16.95,2.32,1.89,3.49,2.84.54.35,1.08.69,1.62,1.04,0,0-.02-.11-.02-.11.36,1.66.46,3.43,1.11,4.97,5.08,11.89,10.3,23.71,15.39,35.59.76,1.77,1.08,3.72,1.6,5.59-1.06.57-2.12,1.14-3.17,1.71-.74.23-1.48.46-2.22.69-1.59.77-3.18,1.54-4.78,2.31-.74.23-1.48.46-2.22.69-1.59.78-3.19,1.56-4.78,2.35-.99.44-1.98.88-2.96,1.32-2.33,1.01-4.66,2.02-6.99,3.04-1.11.4-2.21.81-3.32,1.21-3.24,1.47-6.49,2.95-9.73,4.42-1.67.74-3.34,1.48-5,2.23-3.67,1.58-7.33,3.16-11,4.74-.99.44-1.99.87-2.99,1.31-2.33,1.02-4.66,2.03-6.98,3.05-1.11.41-2.21.82-3.32,1.23-4.23,1.91-8.47,3.82-12.7,5.73-.68.3-1.35.61-2.03.91-.66.29-1.32.57-1.98.86-.74.2-1.48.41-2.22.61l-6.78,3.27c-1.67.75-3.35,1.49-5.02,2.24-5.14,1.77-10.38,3.3-15.39,5.39-3.37,1.41-6.4,3.6-9.59,5.45-.75.21-1.49.42-2.24.63-.96.08-2.01-.09-2.85.27-7.72,3.27-15.45,6.5-23.06,10.01-3.75,1.73-7.25,4.03-10.86,6.08-.75.21-1.5.42-2.25.64-1.58.82-3.17,1.63-4.75,2.45-.74.2-1.48.41-2.22.61-4.23,1.52-8.56,2.83-12.67,4.62-2.85,1.24-5.42,3.14-8.11,4.75-1,.41-1.99.82-2.99,1.23-4.34,1.92-8.68,3.84-13.01,5.77-.74.21-1.49.42-2.23.63-3.92,1.79-7.85,3.58-11.77,5.36-1.41.54-2.83,1.07-4.24,1.61-1.59.78-3.18,1.56-4.76,2.34-.75.22-1.49.44-2.24.66-1.59.79-3.18,1.58-4.76,2.38-.99.43-1.98.86-2.97,1.3-2.01.88-4.02,1.77-6.03,2.65-.75.23-1.49.45-2.24.68-3.92,1.78-7.84,3.56-11.76,5.34-1.41.55-2.83,1.1-4.24,1.64-3.92,1.78-7.84,3.56-11.76,5.34l-2.98,1.31c-2.34,1.01-4.67,2.01-7.01,3.02-.68.58-1.36,1.16-2.04,1.74-1.21-1.88-2.72-3.62-3.6-5.65-31.43-72.07-62.8-144.17-94.18-216.27-8.44-19.4-16.9-38.79-25.3-58.21-.64-1.49-.88-3.15-1.31-4.73,1.14-.66,2.28-1.33,3.42-1.99.42-.11.84-.21,1.26-.32.92-.47,1.83-.94,2.75-1.4.99-.43,1.98-.85,2.98-1.28,3.01-1.33,6.01-2.65,9.02-3.98.42-.11.84-.22,1.27-.32,3.92-1.77,7.83-3.54,11.75-5.31,1.42-.56,2.84-1.12,4.26-1.68,5.32-1.93,10.7-3.71,15.93-5.85,2.1-.86,3.87-2.51,5.8-3.79.43-.11.86-.23,1.29-.34,4.91-2.21,9.81-4.41,14.72-6.62,1.41-.5,2.82-.99,4.23-1.49,4.59-2.13,9.19-4.26,13.78-6.38.74-.2,1.48-.41,2.22-.61,2.26-1.09,4.52-2.18,6.78-3.27.75-.22,1.51-.44,2.26-.66,3.91-1.82,7.83-3.63,11.74-5.45.74-.2,1.49-.41,2.23-.61,4.59-2.12,9.18-4.24,13.77-6.37.75-.21,1.49-.42,2.24-.63,4.59-2.12,9.18-4.25,13.77-6.37.75-.21,1.49-.41,2.24-.62,3.92-1.81,7.84-3.61,11.76-5.42.99-.42,1.98-.84,2.97-1.26,2.01-.89,4.02-1.77,6.03-2.66l2.25-.65c1.58-.8,3.17-1.6,4.75-2.4.74-.22,1.48-.44,2.22-.66l6.78-3.28c.75-.22,1.5-.44,2.25-.66,3.92-1.79,7.83-3.59,11.75-5.38l4.26-1.6c1.91-.91,3.82-1.83,5.73-2.74l1.27-.27c.91-.47,1.83-.94,2.74-1.42,1.67-.74,3.33-1.49,5-2.23,1.34-.57,2.67-1.14,4.01-1.71,1.42-.54,2.84-1.09,4.26-1.63.91-.47,1.82-.94,2.73-1.41.99-.44,1.98-.87,2.97-1.31,2.33-1.02,4.66-2.03,6.99-3.05,1.11-.4,2.22-.81,3.32-1.21,3.24-1.47,6.48-2.95,9.73-4.42,1.67-.74,3.34-1.48,5.01-2.22.66-.29,1.33-.58,1.99-.87.74-.2,1.47-.4,2.21-.6,2.26-1.09,4.53-2.18,6.79-3.26,1.42-.55,2.83-1.11,4.25-1.66,3.92-1.78,7.84-3.55,11.75-5.33,1-.43,2-.86,3-1.3.66-.35,1.32-.7,1.98-1.05.34-.33.67-.67,1.01-1,1.06,1.63,2.38,3.15,3.15,4.91,12.11,27.61,24.14,55.26,36.19,82.89-.75,1.17-1.49,2.33-2.24,3.5Z"/>
  <path class="cls-20" d="M653.09,479.5c-.54-.35-1.08-.69-1.62-1.04.54.35,1.08.69,1.62,1.04Z"/>
  <path class="cls-9" d="M319.62,562.21c-3.48,7.33-6.97,14.67-10.63,22.37-15.58-7.59-30.76-14.98-46.25-22.52,4.2-8.59,8.22-16.84,12.49-25.58,14.22,6.98,28.14,13.82,42.07,20.66.77,1.69,1.54,3.38,2.31,5.07Z"/>
  <path class="cls-12" d="M373.2,317.11c-.74.2-1.49.41-2.23.61-3.91,1.82-7.83,3.63-11.74,5.45-.75.22-1.51.44-2.26.65-2.26,1.09-4.52,2.18-6.78,3.27-.74.2-1.48.41-2.22.61-4.59,2.13-9.19,4.26-13.78,6.39-1.41.5-2.82.99-4.23,1.49-4.91,2.21-9.81,4.41-14.72,6.62-.43.11-.86.23-1.29.34-7.24,3.21-14.49,6.43-21.73,9.64-1.42.56-2.84,1.12-4.26,1.68-3.92,1.77-7.83,3.54-11.75,5.31-.42.11-.84.22-1.27.32-3.01,1.33-6.01,2.65-9.02,3.98-.99.43-1.98.85-2.98,1.28-.92.47-1.83.94-2.75,1.4-.42.11-.84.21-1.26.32-1.18.34-2.36.69-3.54,1.03-.73-2.26-.8-2.43,1.98-3.66,10.62-4.72,21.29-9.32,31.95-13.96,12.77-5.56,25.52-11.16,38.31-16.67,20.86-8.99,41.78-17.86,62.62-26.91,19.95-8.67,39.79-17.57,59.73-26.25,21.3-9.28,42.67-18.41,63.99-27.65,9.29-4.03,18.5-8.26,27.85-12.13,1.39-.58,3.65-3.35,5.17.23-.34.33-.67.67-1.01,1-.66.35-1.32.7-1.98,1.05-1,.43-2,.86-3,1.3-3.92,1.77-7.84,3.55-11.75,5.33-1.42.55-2.83,1.11-4.25,1.66-2.26,1.09-4.53,2.18-6.79,3.26-.74.2-1.47.4-2.21.6-.66.29-1.33.58-1.99.87-1.67.74-3.34,1.48-5.01,2.22-3.24,1.47-6.48,2.95-9.73,4.42-1.11.4-2.22.81-3.32,1.21-2.33,1.02-4.66,2.03-6.99,3.05-.99.44-1.98.87-2.97,1.31-.91.47-1.82.94-2.73,1.41-1.42.54-2.84,1.09-4.26,1.63-1.34.57-2.67,1.14-4.01,1.71-1.67.74-3.33,1.49-5,2.23-.91.47-1.83.94-2.74,1.42-.42.09-.84.18-1.27.27-1.91.91-3.82,1.83-5.73,2.74-1.42.53-2.84,1.07-4.26,1.6-3.92,1.79-7.83,3.59-11.75,5.38-.75.22-1.5.44-2.25.65-2.26,1.09-4.52,2.19-6.78,3.28-.74.22-1.48.44-2.22.66-1.58.8-3.17,1.6-4.75,2.4-.75.22-1.5.44-2.25.65-2.01.89-4.02,1.77-6.03,2.66-.99.42-1.98.84-2.97,1.26-3.92,1.81-7.84,3.61-11.76,5.42-.75.21-1.49.41-2.24.62-4.59,2.12-9.18,4.25-13.77,6.37-.75.21-1.49.42-2.24.63-4.59,2.12-9.18,4.24-13.77,6.37Z"/>
  <path class="cls-12" d="M665.78,527.94c.74-.23,1.48-.46,2.22-.69,1.11-.22,2.21-.45,3.32-.67-.65,1.09-1.03,2.77-1.98,3.19-18.66,8.27-37.4,16.38-56.1,24.56-21.24,9.29-42.44,18.68-63.71,27.9-20.52,8.9-41.14,17.56-61.66,26.46-19.8,8.58-39.51,17.35-59.28,26-15.2,6.65-30.43,13.26-45.7,19.75-.7.3-1.97-.72-2.97-1.13.68-.58,1.36-1.16,2.04-1.74,2.34-1.01,4.67-2.01,7.01-3.02.99-.44,1.99-.88,2.98-1.31,3.92-1.78,7.84-3.56,11.76-5.34,1.41-.55,2.83-1.1,4.24-1.64,3.92-1.78,7.84-3.56,11.76-5.34.75-.23,1.49-.45,2.24-.68,2.01-.88,4.02-1.77,6.03-2.65.99-.43,1.98-.86,2.97-1.3,1.59-.79,3.18-1.58,4.76-2.38.75-.22,1.49-.44,2.24-.66,1.59-.78,3.18-1.56,4.76-2.34,1.41-.54,2.83-1.07,4.24-1.61,3.92-1.79,7.85-3.58,11.77-5.36.74-.21,1.49-.42,2.23-.63,4.34-1.92,8.68-3.84,13.01-5.77,1-.41,1.99-.82,2.99-1.23,6.93-3.12,13.86-6.24,20.78-9.36.74-.2,1.48-.41,2.22-.61,1.58-.82,3.17-1.63,4.75-2.45.75-.21,1.5-.42,2.25-.64,9.08-3.81,18.19-7.55,27.23-11.46,3.27-1.42,6.37-3.25,9.54-4.89.75-.21,1.49-.42,2.24-.63,8.33-3.61,16.65-7.23,24.98-10.84,1.67-.75,3.35-1.49,5.02-2.24,2.26-1.09,4.52-2.18,6.78-3.27.74-.2,1.48-.41,2.22-.61.66-.29,1.32-.57,1.98-.86.68-.3,1.35-.61,2.03-.91,4.23-1.91,8.47-3.82,12.7-5.73,1.11-.41,2.21-.82,3.32-1.23,2.33-1.02,4.66-2.03,6.98-3.05.99-.44,1.99-.87,2.99-1.31,3.67-1.58,7.33-3.16,11-4.74,1.67-.74,3.34-1.48,5-2.22,3.24-1.47,6.49-2.95,9.73-4.42,1.11-.4,2.21-.81,3.32-1.21,2.33-1.01,4.66-2.02,6.99-3.04.99-.44,1.98-.88,2.96-1.32,1.59-.78,3.19-1.56,4.78-2.35.74-.23,1.48-.46,2.22-.69,1.59-.77,3.18-1.54,4.78-2.31Z"/>
  <path class="cls-9" d="M310.31,541.14c-10.05-4.7-20.1-9.39-30.47-14.24,4.19-8.58,8.08-16.58,12.05-24.55.16-.31,1.05-.26,1.6-.37,5.61,13.05,11.22,26.1,16.82,39.15Z"/>
  <path class="cls-27" d="M582.97,275.78c5.02,1.62,10.03,3.24,15.81,5.1-2.72,5.26-5.06,9.77-7.39,14.27-2.81-6.46-5.61-12.92-8.41-19.37Z"/>
  <path class="cls-24" d="M255.4,367.5c1.18-.34,2.36-.68,3.54-1.03-1.14.66-2.28,1.33-3.42,1.99-.04-.32-.08-.64-.12-.96Z"/>
  <path class="cls-24" d="M671.32,526.58c-1.11.22-2.21.45-3.32.67,1.06-.57,2.12-1.14,3.17-1.71.05.35.09.69.14,1.04Z"/>
  <path class="cls-27" d="M420.79,235.94c-.05.1-.1.2-.15.29-.13-.11-.25-.22-.38-.33.1-.1.19-.19.29-.29.08.11.17.21.25.32Z"/>
  <path class="cls-4" d="M347.87,260.51c-.12-.25-.27-.48-.35-.74-.02-.05.23-.18.36-.28,0,.34,0,.68,0,1.02Z"/>
  <path class="cls-6" d="M136,278.69c.39-.74.77-1.49,1.16-2.23-.39.74-.77,1.49-1.16,2.23Z"/>
  <path class="cls-6" d="M119.4,300.38c-.14-.69-.28-1.38-.42-2.07.14.69.28,1.38.42,2.07Z"/>
  <path class="cls-6" d="M121.03,307.51c-.2-.2-.42-.39-.59-.61-.03-.03.17-.24.27-.37.11.33.22.65.33.98Z"/>
  <path class="cls-6" d="M121.87,314.39c-.02-.3,0-.59.04-.88.07.21.18.41.21.63.01.07-.16.17-.24.26Z"/>
  <path class="cls-6" d="M116.71,286.48c-.16-.56-.33-1.13-.49-1.69.16.56.33,1.13.49,1.69Z"/>
  <path class="cls-9" d="M275.4,653.5c-15.58-7.59-30.63-14.92-46.14-22.47,4.12-8.53,8.11-16.8,12.31-25.5,15.32,7.46,30.6,14.9,46.19,22.49-4.18,8.62-8.16,16.81-12.36,25.48Z"/>
  <path class="cls-15" d="M260.67,603.64c-.91-.41-1.82-.83-2.74-1.24-1.74-.89-3.48-1.77-5.22-2.66,0,0,.08.06.08.06-1.18-1.94-3.8-4.47-3.29-5.72,2.73-6.69,6.24-13.05,9.6-19.77,14.53,7.07,28.45,13.84,42.02,20.43-.79,3.05-1.43,5.57-2.08,8.09.08.26.04.49-.12.71-.29.44-.59.88-.88,1.31-.07.56-.13,1.12-.2,1.69-1.35,1.66-3.14,3.12-3.96,5.01-2.4,5.53-2.43,5.59-7.79,3.13-2.01-.92-4.3-1.23-6.46-1.82,0,0,.05.06.05.06-5.5-2.7-11-5.4-16.5-8.1,0,0-.19,0-.19,0-.78-.39-1.56-.78-2.33-1.17Z"/>
  <path class="cls-9" d="M299.06,602.83c.65-2.52,1.3-5.04,2.08-8.09-13.57-6.6-27.49-13.37-42.02-20.43-3.36,6.72-6.87,13.08-9.6,19.77-.51,1.25,2.11,3.78,3.29,5.72-2.25-.96-4.49-1.91-6.96-2.97,4.15-8.53,8.1-16.67,12.35-25.4,15.27,7.42,30.56,14.85,46.5,22.59-2.02,3.16-3.82,5.98-5.63,8.81Z"/>
  <path class="cls-9" d="M279.65,612.86c2.16.59,4.45.9,6.46,1.82,5.36,2.46,5.4,2.4,7.79-3.13.82-1.89,2.61-3.35,3.96-5.01-1.8,4.06-3.61,8.12-5.71,12.84-4.43-2.31-8.47-4.42-12.5-6.52Z"/>
  <path class="cls-9" d="M263.2,604.81c5.5,2.7,11,5.4,16.5,8.1-5.5-2.7-11-5.4-16.5-8.1Z"/>
  <path class="cls-9" d="M252.72,599.74c1.74.89,3.48,1.77,5.22,2.66-1.74-.89-3.48-1.77-5.22-2.66Z"/>
  <path class="cls-9" d="M260.67,603.64c.78.39,1.56.78,2.33,1.17-.78-.39-1.56-.78-2.33-1.17Z"/>
  <path class="cls-9" d="M298.06,604.86c.29-.44.59-.88.88-1.31-.29.44-.59.88-.88,1.31Z"/>
  <path class="cls-15" d="M123.4,489.94c.36-.08.72-.16,1.08-.23-.14.32-.27.64-.41.97-.24-.23-.47-.47-.67-.73Z"/>
  <path class="cls-10" d="M861.95,439.43c-2.88-1.69-5.31-3.04-7.66-4.52-6.21-3.9-12.21-8.19-18.64-11.67-4.98-2.7-6.14-5.56-4.31-11.09,5.67-17.07,10.6-34.39,16.11-51.51,1.17-3.63.24-5.28-2.8-7.17-15.85-9.86-31.64-19.81-47.26-30.03-3.28-2.15-5.08-1.48-7.6.89-13.6,12.78-27.39,25.36-40.96,38.17-2.63,2.48-4.54,2.87-7.66.75-8.11-5.51-16.49-10.61-25.67-16.46,2.49-2.42,4.47-4.49,6.6-6.4,50.76-45.22,101.57-90.39,152.25-135.7,4.18-3.73,7.61-8.35,11.09-12.79,1.85-2.36,3.24-3.29,6.11-1.42,10.75,7.01,21.6,13.86,32.5,20.63,2.6,1.62,3,3.27,2.16,6.18-20.84,72.53-41.58,145.09-62.36,217.63-.39,1.37-1.11,2.65-1.91,4.5ZM889.62,230.67c-23.48,22.34-46.74,44.48-70.45,67.05,13.58,8.61,26.69,16.93,40.29,25.55,10.19-31.28,20.14-61.83,30.16-92.6Z"/>
  <path class="cls-10" d="M918.42,475.55c-9.65-6.12-19.07-12.04-28.43-18.05-3.43-2.21-.78-4.44.41-6.32,11.26-17.9,22.62-35.75,33.96-53.61,16.24-25.59,32.5-51.18,48.73-76.78,3.6-5.67,3.58-5.72,9.12-2.25,7.34,4.6,14.62,9.29,21.99,13.84,2.8,1.73,3.42,3.33,1.46,6.4-28.2,44.24-56.27,88.57-84.39,132.86-.78,1.23-1.72,2.37-2.86,3.92Z"/>
  <path class="cls-10" d="M1017.17,309.43c-11.67.03-22.88-10.32-22.7-20.95.19-11.47,10.27-22.02,21.08-22.08,11.54-.06,22.21,9.84,22.29,20.68.08,11.42-10.01,22.33-20.68,22.35Z"/>
  <path class="cls-16" d="M375.09,471.48c-.3-.65-.61-1.29-.91-1.94-.49-1.41-.89-2.85-1.47-4.21-8.49-19.71-17-39.4-25.52-59.09-2.95-6.82-3.13-7.14,3.52-9.97,16.34-6.95,32.83-13.55,49.26-20.29,1.02-.09,2.04-.18,3.06-.27,2.65-.31,5.3-.62,7.96-.94.7.08,1.41.16,2.11.24,11.74.51,21.65,5.29,30.3,13.01,0,0,.08.06.09.06.98,1.24,1.95,2.49,2.93,3.74.73.76,1.46,1.53,2.19,2.29.69,1.17,1.38,2.34,2.07,3.51,4.89,8.98,8.85,18.32,9.66,28.62,1.4,17.76-5.81,32-19.72,42.34-7.92,5.88-17.13,10.07-25.95,14.66-2.98,1.55-3.84,2.63-2.33,5.97,6.64,14.71,13.04,29.54,19.33,44.41.82,1.95.56,4.36.79,6.56-7.17,3.09-14.34,6.18-21.51,9.27-1.23-1.42-2.9-2.64-3.63-4.29-7-15.91-13.83-31.9-20.77-47.84-.49-1.13-1.41-2.08-2.12-3.12l-.2-.18c-.2-.9-.39-1.79-.59-2.69-.85-1.96-1.7-3.91-2.54-5.87-.29-.68-.58-1.36-.87-2.04-.98-1.88-1.96-3.77-2.93-5.65l.26-.04s.03-.26.03-.26c-.83-2-1.65-4-2.48-6.01ZM392.46,443.32c.55,1.4,1.11,2.79,1.66,4.19.46.9.93,1.8,1.39,2.69.54,1.44,1.08,2.87,1.63,4.31.46.93.91,1.86,1.37,2.79.36,2.91,1.07,5.62,4.91,3.91,5.28-2.35,10.44-4.95,15.66-7.44,3.51-3.32,7.02-6.64,10.52-9.96,5.2-9.47,3.67-18.83-.61-28.07-4-8.64-10.21-14.62-20.19-15.3-11.5-.79-21.13,4.46-31.31,9.81,2.32,5.01,4.47,9.64,6.61,14.27.45.94.91,1.87,1.36,2.81,1.87,4.4,3.74,8.8,5.61,13.2.46.94.93,1.87,1.39,2.81Z"/>
  <path class="cls-5" d="M477.03,424.54c-.61-6.66-1.21-13.33-1.82-19.99.19-1.73.37-3.46.56-5.19,0,0-.06.17-.07.16,1.85-3.27,3.71-6.53,5.58-9.79,0,0-.07.06-.08.06,1.97-2.01,3.94-4.02,5.91-6.03,1.07-.7,2.13-1.4,3.2-2.09.92-.66,1.84-1.32,2.76-1.99.96-.58,1.92-1.16,2.88-1.74.65-.24,1.29-.48,1.94-.72,3.7-1.58,7.4-3.17,11.1-4.75,1.34-.4,2.68-.8,4.02-1.2,1.67-.55,3.33-1.09,5-1.64,1.33-.1,2.67-.21,4-.31,1.65-.2,3.3-.4,4.95-.61.7.26,1.4.52,2.11.78.48.85.95,1.7,1.43,2.55.3.79.6,1.57.89,2.36,1.72,3.88,3.43,7.75,5.15,11.63.55,1.16,1.1,2.32,1.65,3.48-.37.8-.74,1.6-1.11,2.39-4.03.17-8.07.33-12.1.5l-2.98,1.1c-5.44,1.82-10.98,3.37-16.28,5.53-3.83,1.56-6.57,4.46-5.93,9.15.63,4.59,2.82,8.3,7.64,9.02,9.14,1.38,18.36,2.3,27.54,3.4,7,2.34,13.99,4.68,20.99,7.02l3.26,2.46s.28.19.28.18c3.85,6.75,7.7,13.5,11.55,20.25-.06.66-.11,1.33-.17,1.99.47,7.6-.57,14.92-3.99,21.81-6.6,5.96-13.21,11.91-19.81,17.87-7.03,2.46-14.07,4.92-21.11,7.39-1,0-1.99-.01-2.99-.02-2.66.25-5.33.51-7.99.76-1.64-.61-3.27-1.22-4.91-1.83-.55-1.15-1.1-2.3-1.64-3.45-.64-1.45-1.28-2.91-1.92-4.36-.69-1.55-1.38-3.1-2.07-4.66-.32-.78-.63-1.56-.95-2.34-.38-.86-.76-1.73-1.14-2.59-.36-.79-.71-1.57-1.07-2.36.32-.99.64-1.97.96-2.96,3.58.28,7.16.55,10.74.83,3.67-.36,7.33-.72,11-1.07.5-.3,1-.59,1.5-.89,3.86-1.62,7.72-3.25,11.58-4.87.91-.63,1.81-1.26,2.72-1.89.77-.96,1.55-1.91,2.32-2.87.62-1.16,1.25-2.31,1.87-3.47-.02-.34-.03-.68-.05-1.02-.3-1.66-.6-3.33-.9-4.99-.96-1.09-1.93-2.18-2.89-3.28-.73-.41-1.47-.81-2.2-1.22-.42.02-.83.04-1.25.06-3.23-.86-6.47-1.72-9.7-2.59-.94-.33-1.89-.66-2.83-.99-2.72.01-5.45.02-8.17.03-1.27-.12-2.55-.24-3.82-.36-4.14-.85-8.28-1.71-12.43-2.56-.34.14-.68.28-1.02.42-1.88-.95-3.76-1.9-5.63-2.85-.56-.26-1.12-.53-1.68-.79-1.37-.92-2.74-1.84-4.11-2.76-.4-.44-.8-.89-1.2-1.33l-.85-.92c-1.41-1.62-2.82-3.25-4.23-4.87-.11-.31-.22-.61-.33-.92-.56-.71-1.12-1.43-1.68-2.14-.66-1.3-1.32-2.61-1.98-3.91Z"/>
  <path class="cls-8" d="M399.96,375.98c-16.43,6.74-32.92,13.34-49.26,20.29-6.66,2.83-6.48,3.16-3.52,9.97,8.53,19.69,17.03,39.39,25.52,59.09.59,1.36.99,2.81,1.47,4.21-1.58-1.7-3.76-3.14-4.65-5.15-8.88-20.04-17.66-40.12-26.11-60.35-.82-1.96,0-5.67,1.48-7.27,2.26-2.45,5.59-4.11,8.73-5.5,11.23-4.99,22.51-9.85,33.89-14.48,3.93-1.6,8.2-2.34,12.82-3.61-.17,1.28-.27,2.03-.37,2.79Z"/>
  <path class="cls-1" d="M534.96,420.61c-9.18-1.11-18.4-2.02-27.54-3.4-4.83-.73-7.02-4.43-7.64-9.02-.64-4.69,2.1-7.59,5.93-9.15,5.3-2.16,10.84-3.72,16.28-5.53-3.04,1.69-6.06,3.42-9.13,5.06-1.89,1.01-4.11,1.56-5.72,2.89-1.87,1.55-4.67,3.89-4.47,5.58.3,2.51,2.46,6.22,4.57,6.82,6.58,1.88,13.51,2.56,20.31,3.66,2.73.44,6.27-1.13,7.4,3.1Z"/>
  <path class="cls-1" d="M515,500.31c2.66-.25,5.33-.51,7.99-.76,1,0,1.99.01,2.99.02,7.04-2.46,14.08-4.92,21.11-7.39.72.22,1.44.44,2.71.83-10.16,6.11-20.57,9.15-31.75,9.41-1,.02-2.04-1.38-3.05-2.12Z"/>
  <path class="cls-8" d="M443.39,388.02c-8.65-7.72-18.55-12.5-30.3-13.01.14-4.49,3.83-2.21,5.16-2.01,9.22,1.46,17.64,4.97,24.4,11.67.68.68.52,2.21.74,3.35Z"/>
  <path class="cls-8" d="M410.94,549.46c7.17-3.09,14.34-6.18,21.51-9.27-.26,1-.23,2.62-.83,2.91-6.87,3.24-13.83,6.27-21.49,9.67.39-1.6.6-2.46.81-3.31Z"/>
  <path class="cls-1" d="M571.05,450.52c-3.85-6.75-7.7-13.5-11.55-20.25,4.28-2.09,5.76,2.04,7.14,4.08,2.62,3.9,4.28,8.49,6.01,12.92.3.76-1.02,2.15-1.59,3.25Z"/>
  <path class="cls-1" d="M566.9,474.32c3.42-6.89,4.46-14.21,3.99-21.81.93,1.19,2.8,2.53,2.64,3.55-1.07,6.78-2.58,13.49-3.94,20.22-.6-.03-1.2-.05-1.8-.08-.3-.63-.59-1.26-.89-1.88Z"/>
  <path class="cls-1" d="M503.5,483.67c.32.78.63,1.56.95,2.34.69,1.55,1.38,3.1,2.07,4.66.64,1.45,1.28,2.91,1.92,4.36.18,1.16.37,2.32.55,3.48-.56.21-1.6.63-1.62.59-3.06-6.71-6.07-13.44-8.96-20.22-.08-.19,1-.89,1.55-1.35.45.39.9.79,1.34,1.18.36.79.71,1.57,1.07,2.36.38.86.76,1.73,1.14,2.59Z"/>
  <path class="cls-1" d="M531.38,374.39c-.3-.79-.6-1.58-.89-2.36.11-.82.22-1.65.33-2.47.87.37,2.25.52,2.54,1.16,2.48,5.55,4.81,11.18,7,16.86.12.32-1.41,1.27-2.18,1.92-.55-1.16-1.1-2.32-1.64-3.48-1.72-3.88-3.44-7.75-5.15-11.63Z"/>
  <path class="cls-1" d="M524.97,392.39c4.03-.17,8.07-.33,12.1-.5-1.83,3.55-9.34,3.86-12.1.5Z"/>
  <path class="cls-1" d="M512.99,476.59c-3.58-.28-7.16-.55-10.74-.83-.43-.1-.85-.19-1.28-.29,3.02-3.14,10.2-2.46,12.01,1.12Z"/>
  <path class="cls-1" d="M497.88,377.21c-.65.24-1.29.48-1.94.72.99-4.68,9.71-9.07,13.06-6.58-3.71,1.95-7.41,3.9-11.12,5.85Z"/>
  <path class="cls-8" d="M410.98,374.77c-2.65.31-5.3.62-7.96.94.36-4.51,3.85-2.95,6.31-3.09.51-.03,1.09,1.39,1.64,2.15Z"/>
  <path class="cls-1" d="M481.27,389.72c-1.86,3.26-3.73,6.52-5.58,9.79-.58-4.65,1.37-7.86,5.58-9.79Z"/>
  <path class="cls-1" d="M499.74,444.62c4.14.85,8.28,1.71,12.43,2.56-4.04,2.14-8.56,1.21-12.43-2.56Z"/>
  <path class="cls-2" d="M497.88,377.21c3.71-1.95,7.41-3.9,11.12-5.85,0,.37,0,.73-.01,1.1-3.7,1.58-7.4,3.17-11.1,4.75Z"/>
  <path class="cls-1" d="M487.1,383.75c-1.97,2.01-3.94,4.02-5.91,6.03.39-4.62,2.43-6.71,5.91-6.03Z"/>
  <path class="cls-1" d="M526.98,448.5c3.23.86,6.46,1.73,9.7,2.59-3.23-.87-6.47-1.73-9.7-2.59Z"/>
  <path class="cls-1" d="M515.99,447.54c2.72,0,5.45-.02,8.17-.03-2.71,3.08-5.43,3.33-8.17.03Z"/>
  <path class="cls-1" d="M477.03,424.54c.66,1.3,1.32,2.61,1.98,3.91-.07.77-.13,1.54-.2,2.32-.29.1-.58.19-.87.29-.95-1.91-1.91-3.83-2.86-5.74.65-.26,1.3-.52,1.96-.78Z"/>
  <path class="cls-8" d="M450.67,397.63c-.69-1.17-1.38-2.34-2.07-3.51,1.07.04,2.15.08,3.22.12-.38,1.13-.77,2.26-1.15,3.39Z"/>
  <path class="cls-8" d="M375.09,471.48c.82,2,1.65,4.01,2.48,6.01-4.04-1.75-4.85-3.72-2.48-6.01Z"/>
  <path class="cls-1" d="M526.95,368.69c-1.65.2-3.3.4-4.95.61,1.09-4.77,2.94-3.32,4.95-.61Z"/>
  <path class="cls-1" d="M518,369.61c-1.67.55-3.33,1.09-5,1.64.92-1.18,1.84-2.36,2.76-3.53.75.63,1.49,1.26,2.23,1.89Z"/>
  <path class="cls-8" d="M381.08,485.49c.85,1.96,1.69,3.91,2.54,5.87-4.06-1.37-5.03-3.61-2.54-5.87Z"/>
  <path class="cls-1" d="M559.22,430.09l-3.26-2.46,2.2-1.48,1.07,3.94Z"/>
  <path class="cls-8" d="M446.41,391.82c-.97-1.25-1.95-2.49-2.93-3.74,1.23.33,2.47.65,3.71.97-.26.92-.52,1.84-.78,2.77Z"/>
  <path class="cls-1" d="M493.06,379.67c-.92.66-1.84,1.32-2.76,1.99-.57-.54-1.13-1.08-1.7-1.63,1.49-.12,2.97-.24,4.46-.36Z"/>
  <path class="cls-8" d="M377.27,477.8c.98,1.88,1.96,3.77,2.93,5.65-4.07-.28-3.28-3.08-2.93-5.65Z"/>
  <path class="cls-1" d="M543.02,455.52c.3,1.66.6,3.33.9,4.99-1.14-1.51-4.61-2.6-.9-4.99Z"/>
  <path class="cls-1" d="M493.08,442.19c1.88.95,3.76,1.91,5.63,2.85-2.69.64-5.07.69-5.63-2.85Z"/>
  <path class="cls-1" d="M475.76,399.36c-.19,1.73-.37,3.46-.56,5.19-3.99-2.18-1.22-3.63.56-5.19Z"/>
  <path class="cls-1" d="M487.3,438.64c1.37.92,2.74,1.84,4.11,2.76-1.37-.92-2.74-1.84-4.11-2.76Z"/>
  <path class="cls-2" d="M500.98,475.46c.43.1.85.19,1.28.29-.32.99-.64,1.97-.96,2.96-.45-.39-.9-.79-1.34-1.18.34-.69.68-1.38,1.03-2.07Z"/>
  <path class="cls-1" d="M543.98,461.52c-.62,1.16-1.25,2.31-1.87,3.47.62-1.16,1.25-2.31,1.87-3.47Z"/>
  <path class="cls-2" d="M508.99,498.51c-.18-1.16-.37-2.32-.55-3.48.55,1.15,1.1,2.3,1.65,3.45-.37.01-.73.02-1.1.03Z"/>
  <path class="cls-2" d="M530.82,369.56c-.11.82-.22,1.64-.33,2.47-.48-.85-.95-1.7-1.43-2.55.59.03,1.17.05,1.76.08Z"/>
  <path class="cls-1" d="M485.24,436.38c.28.31.57.62.85.92-.47.27-.94.53-1.4.8.18-.57.37-1.15.55-1.72Z"/>
  <path class="cls-1" d="M537.93,451.02c.73.41,1.47.81,2.2,1.22-.73-.41-1.47-.81-2.2-1.22Z"/>
  <path class="cls-1" d="M539.78,467.87c-.91.63-1.81,1.26-2.72,1.89.91-.63,1.81-1.26,2.72-1.89Z"/>
  <path class="cls-1" d="M480.69,430.59c.11.31.22.61.33.92-.19-.18-.4-.35-.55-.56-.03-.04.14-.23.22-.36Z"/>
  <path class="cls-8" d="M384.42,494.22c-.18.22-.36.45-.54.67.11-.28.21-.57.32-.85,0,0,.21.18.21.18Z"/>
  <path class="cls-1" d="M525.49,474.63c-.5.3-1,.59-1.5.89.5-.3,1-.59,1.5-.89Z"/>
  <path class="cls-24" d="M543.74,580.91c-3.17,1.64-6.27,3.47-9.54,4.89-9.04,3.91-18.15,7.65-27.23,11.46,3.61-2.04,7.1-4.34,10.86-6.08,7.61-3.51,15.34-6.74,23.06-10.01.84-.35,1.9-.19,2.85-.27Z"/>
  <path class="cls-24" d="M570.96,569.44c-8.33,3.61-16.65,7.23-24.98,10.84,3.18-1.84,6.22-4.04,9.59-5.45,5.01-2.09,10.25-3.62,15.39-5.39Z"/>
  <path class="cls-24" d="M292.22,352.18c7.24-3.21,14.49-6.43,21.73-9.64-1.92,1.29-3.7,2.94-5.8,3.79-5.23,2.14-10.61,3.92-15.93,5.85Z"/>
  <path class="cls-24" d="M497.75,600.96c-6.93,3.12-13.86,6.24-20.78,9.36,2.69-1.61,5.26-3.51,8.11-4.75,4.12-1.79,8.44-3.1,12.67-4.62Z"/>
  <path class="cls-24" d="M315.23,342.2c4.91-2.21,9.81-4.41,14.72-6.62-4.91,2.21-9.81,4.41-14.72,6.62Z"/>
  <path class="cls-24" d="M389.21,310.12c4.59-2.12,9.18-4.25,13.77-6.37-4.59,2.12-9.18,4.25-13.77,6.37Z"/>
  <path class="cls-24" d="M373.2,317.11c4.59-2.12,9.18-4.24,13.77-6.37-4.59,2.12-9.18,4.24-13.77,6.37Z"/>
  <path class="cls-24" d="M473.98,611.55c-4.34,1.92-8.68,3.84-13.01,5.77,4.34-1.92,8.68-3.84,13.01-5.77Z"/>
  <path class="cls-24" d="M334.18,334.09c4.59-2.13,9.19-4.26,13.78-6.39-4.59,2.13-9.19,4.26-13.78,6.39Z"/>
  <path class="cls-24" d="M601.7,555.83c-4.23,1.91-8.47,3.82-12.7,5.73,4.23-1.91,8.47-3.82,12.7-5.73Z"/>
  <path class="cls-24" d="M403.71,641.91c-3.92,1.78-7.84,3.56-11.76,5.34,3.92-1.78,7.84-3.56,11.76-5.34Z"/>
  <path class="cls-24" d="M458.74,617.95c-3.92,1.79-7.85,3.58-11.77,5.36,3.92-1.79,7.85-3.58,11.77-5.36Z"/>
  <path class="cls-24" d="M625.99,545.5c-3.67,1.58-7.33,3.16-11,4.74,3.67-1.58,7.33-3.16,11-4.74Z"/>
  <path class="cls-24" d="M444.23,286.15c3.92-1.79,7.83-3.59,11.75-5.38-3.92,1.79-7.83,3.59-11.75,5.38Z"/>
  <path class="cls-24" d="M405.21,303.13c3.92-1.81,7.84-3.61,11.76-5.42-3.92,1.81-7.84,3.61-11.76,5.42Z"/>
  <path class="cls-24" d="M529.24,249.14c3.92-1.78,7.84-3.55,11.75-5.33-3.92,1.78-7.84,3.55-11.75,5.33Z"/>
  <path class="cls-24" d="M419.72,634.93c-3.92,1.78-7.84,3.56-11.76,5.34,3.92-1.78,7.84-3.56,11.76-5.34Z"/>
  <path class="cls-24" d="M359.22,323.17c3.91-1.82,7.83-3.63,11.74-5.45-3.91,1.82-7.83,3.63-11.74,5.45Z"/>
  <path class="cls-24" d="M276.21,359.17c3.92-1.77,7.83-3.54,11.75-5.31-3.92,1.77-7.83,3.54-11.75,5.31Z"/>
  <path class="cls-24" d="M499.27,262.19c3.24-1.47,6.48-2.95,9.73-4.42-3.24,1.47-6.48,2.95-9.73,4.42Z"/>
  <path class="cls-24" d="M640.73,538.85c-3.24,1.47-6.49,2.95-9.73,4.42,3.24-1.47,6.49-2.95,9.73-4.42Z"/>
  <path class="cls-24" d="M265.92,363.47c3.01-1.33,6.01-2.65,9.02-3.98-3.01,1.33-6.01,2.65-9.02,3.98Z"/>
  <path class="cls-24" d="M651.04,534.61c-2.33,1.01-4.66,2.02-6.99,3.04,2.33-1.01,4.66-2.02,6.99-3.04Z"/>
  <path class="cls-24" d="M488.96,266.45c2.33-1.02,4.66-2.03,6.99-3.05-2.33,1.02-4.66,2.03-6.99,3.05Z"/>
  <path class="cls-24" d="M612.01,551.55c-2.33,1.02-4.66,2.03-6.98,3.05,2.33-1.02,4.66-2.03,6.98-3.05Z"/>
  <path class="cls-24" d="M388.97,648.56c-2.34,1.01-4.67,2.01-7.01,3.02,2.34-1.01,4.67-2.01,7.01-3.02Z"/>
  <path class="cls-24" d="M582.76,563.94c-2.26,1.09-4.52,2.18-6.78,3.27,2.26-1.09,4.52-2.18,6.78-3.27Z"/>
  <path class="cls-24" d="M435.2,290.08c2.26-1.09,4.52-2.19,6.78-3.28-2.26,1.09-4.52,2.19-6.78,3.28Z"/>
  <path class="cls-24" d="M427.99,631.6c-2.01.88-4.02,1.77-6.03,2.65,2.01-.88,4.02-1.77,6.03-2.65Z"/>
  <path class="cls-24" d="M419.95,296.45c2.01-.89,4.02-1.77,6.03-2.66-2.01.89-4.02,1.77-6.03,2.66Z"/>
  <path class="cls-24" d="M350.18,327.09c2.26-1.09,4.52-2.18,6.78-3.27-2.26,1.09-4.52,2.18-6.78,3.27Z"/>
  <path class="cls-24" d="M518.2,254.07c2.26-1.09,4.53-2.18,6.79-3.26-2.26,1.09-4.53,2.18-6.79,3.26Z"/>
  <path class="cls-24" d="M460.24,279.16c1.91-.91,3.82-1.83,5.73-2.74-1.91.91-3.82,1.83-5.73,2.74Z"/>
  <path class="cls-24" d="M474.98,272.51c1.34-.57,2.67-1.14,4.01-1.71-1.34.57-2.67,1.14-4.01,1.71Z"/>
  <path class="cls-24" d="M658.78,530.94c-1.59.78-3.19,1.56-4.78,2.35,1.59-.78,3.19-1.56,4.78-2.35Z"/>
  <path class="cls-24" d="M428.23,293.14c1.58-.8,3.17-1.6,4.75-2.4-1.58.8-3.17,1.6-4.75,2.4Z"/>
  <path class="cls-24" d="M665.78,527.94c-1.59.77-3.18,1.54-4.78,2.31,1.59-.77,3.18-1.54,4.78-2.31Z"/>
  <path class="cls-24" d="M504.73,597.9c-1.58.82-3.17,1.63-4.75,2.45,1.58-.82,3.17-1.63,4.75-2.45Z"/>
  <path class="cls-24" d="M442.72,624.92c-1.59.78-3.18,1.56-4.76,2.34,1.59-.78,3.18-1.56,4.76-2.34Z"/>
  <path class="cls-24" d="M435.73,627.93c-1.59.79-3.18,1.58-4.76,2.38,1.59-.79,3.18-1.58,4.76-2.38Z"/>
  <path class="cls-24" d="M544,242.52c.66-.35,1.32-.7,1.98-1.05-.66.35-1.32.7-1.98,1.05Z"/>
  <path class="cls-24" d="M260.2,366.15c.92-.47,1.83-.94,2.75-1.4-.92.47-1.83.94-2.75,1.4Z"/>
  <path class="cls-24" d="M467.24,276.15c.91-.47,1.83-.94,2.74-1.42-.91.47-1.83.94-2.74,1.42Z"/>
  <path class="cls-24" d="M483.25,269.16c.91-.47,1.82-.94,2.73-1.41-.91.47-1.82.94-2.73,1.41Z"/>
  <path class="cls-24" d="M514,255.55c.66-.29,1.33-.58,1.99-.87-.66.29-1.33.58-1.99.87Z"/>
  <path class="cls-24" d="M586.97,562.47c-.66.29-1.32.57-1.98.86.66-.29,1.32-.57,1.98-.86Z"/>
  <path class="cls-7" d="M889.62,230.67c-10.02,30.77-19.97,61.32-30.16,92.6-13.6-8.62-26.71-16.94-40.29-25.55,23.71-22.57,46.97-44.7,70.45-67.05Z"/>
  <path class="cls-14" d="M429.59,443.81c-3.51,3.32-7.02,6.64-10.52,9.96-1.18-.35-2.6-1.29-3.52-.94-4.3,1.67-8.47,3.69-13.3,5.87-6.89-15.94-13.64-31.57-20.89-48.34,8.1-2.63,15.44-5.99,23.1-7.15,4.54-.68,10.48.89,14.26,3.59,9.4,6.72,13.54,23.01,10.08,34.24-.24.77.5,1.84.78,2.76Z"/>
  <path class="cls-1" d="M429.59,443.81c-.28-.93-1.02-1.99-.78-2.76,3.45-11.23-.68-27.53-10.08-34.24-3.78-2.7-9.72-4.27-14.26-3.59-7.67,1.15-15.01,4.51-23.1,7.15,7.25,16.77,14,32.4,20.89,48.34,4.83-2.17,8.99-4.2,13.3-5.87.91-.35,2.33.59,3.52.94-5.21,2.49-10.38,5.09-15.66,7.44-3.84,1.71-4.55-1-4.9-3.91-.46-.93-.91-1.86-1.37-2.79-.54-1.44-1.08-2.87-1.62-4.31-.46-.9-.93-1.79-1.39-2.69-.55-1.4-1.11-2.79-1.66-4.19-.46-.94-.93-1.87-1.39-2.81-1.87-4.4-3.74-8.8-5.6-13.2-.45-.94-.91-1.87-1.37-2.81-2.15-4.63-4.29-9.26-6.61-14.27,10.18-5.35,19.81-10.61,31.31-9.81,9.97.69,16.19,6.66,20.19,15.3,4.27,9.24,5.81,18.6.61,28.07Z"/>
  <path class="cls-14" d="M391.06,440.51c.47.93.93,1.87,1.39,2.81-.47-.93-.93-1.87-1.39-2.81Z"/>
  <path class="cls-14" d="M397.14,454.51c.46.93.92,1.86,1.37,2.79-.46-.93-.92-1.86-1.37-2.79Z"/>
  <path class="cls-14" d="M394.12,447.51c.47.9.93,1.79,1.39,2.69-.47-.89-.93-1.79-1.39-2.69Z"/>
  <path class="cls-14" d="M384.1,424.51c.46.93.91,1.87,1.37,2.81-.46-.93-.91-1.87-1.37-2.81Z"/>
  <path class="cls-2" d="M531.38,374.39c1.72,3.88,3.44,7.75,5.15,11.63-1.72-3.88-3.44-7.75-5.15-11.63Z"/>
  <path class="cls-2" d="M506.52,490.66c-.69-1.55-1.38-3.1-2.07-4.66.69,1.55,1.38,3.1,2.07,4.66Z"/>
  <path class="cls-2" d="M525.98,499.57c-1,0-1.99-.01-2.99-.02,1,0,1.99.01,2.99.02Z"/>
  <path class="cls-2" d="M503.5,483.67c-.38-.86-.76-1.72-1.14-2.59.38.86.76,1.73,1.14,2.59Z"/>
</svg>